<?xml version="1.0" encoding="utf-8" ?>
<svg xmlns="http://www.w3.org/2000/svg" width="760" height="560" viewBox="0 0 760 560">
<rect fill="#ffffff" width="760" height="560"/>
<g font-family="Helvetica Neue, Helvetica, Arial, sans-serif">
<text fill="#1e293b" font-size="14" font-weight="bold" text-anchor="middle" x="380" y="22">Unified 5′ End and Junction Correction</text>
<text fill="#2563eb" font-size="10" font-weight="bold" letter-spacing="0.8" x="60" y="40">PART 1 — 5′ SOFT-CLIP JUNCTION RESCUE (Cat3)</text>
<text fill="#64748b" font-size="10" x="14" y="79">Genome</text>
<rect fill="#6366f1" height="26" rx="4" width="160" x="90" y="62"/>
<text fill="#ffffff" font-size="11" font-weight="600" text-anchor="middle" x="170.0" y="79.0">Exon 1</text>
<line stroke="#94a3b8" stroke-dasharray="6,4" stroke-width="1.5" x1="250" x2="370" y1="75" y2="75"/>
<text fill="#94a3b8" font-size="8.5" text-anchor="middle" x="310.0" y="68">intron</text>
<text fill="#94a3b8" font-size="8" x="253" y="87">GT</text>
<text fill="#94a3b8" font-size="8" text-anchor="end" x="367" y="87">AG</text>
<rect fill="#6366f1" height="26" rx="4" width="160" x="370" y="62"/>
<text fill="#ffffff" font-size="11" font-weight="600" text-anchor="middle" x="450.0" y="79.0">Exon 2</text>
<text fill="#64748b" font-size="10" x="14" y="117">Read</text>
<rect fill="#fee2e2" height="26" rx="4" stroke="#dc2626" stroke-dasharray="4,3" stroke-width="1" width="200" x="170" y="100"/>
<text fill="#dc2626" font-size="9" text-anchor="middle" x="270.0" y="116.0">soft-clipped (matches Exon 1)</text>
<rect fill="#6366f1" height="26" opacity="0.18" rx="4" stroke="#6366f1" stroke-width="1" width="160" x="370" y="100"/>
<text fill="#6366f1" font-size="9" font-weight="600" text-anchor="middle" x="450.0" y="116.0">aligned to Exon 2</text>
<text fill="#2563eb" font-size="8" font-style="italic" x="540" y="111">semi-global NW alignment</text>
<text fill="#2563eb" font-size="8" font-style="italic" x="540" y="123">places bases in Exon 1</text>
<line stroke="#0d9488" stroke-width="1.5" stroke-dasharray="4,3" x1="270" x2="170" y1="136" y2="136"/>
<polygon fill="#0d9488" points="170,136 177,132.5 177,139.5"/>
<text fill="#0d9488" font-size="8" font-weight="600" x="280" y="140">rescue → Exon 1</text>
<text fill="#64748b" font-size="10" x="14" y="167">Corrected</text>
<rect fill="#ccfbf1" height="26" rx="4" stroke="#0d9488" stroke-width="1.2" width="150" x="100" y="150"/>
<text fill="#0d9488" font-size="9" font-weight="600" text-anchor="middle" x="175.0" y="166.0">rescued → Exon 1</text>
<line stroke="#94a3b8" stroke-dasharray="6,4" stroke-width="1.5" x1="250" x2="370" y1="163" y2="163"/>
<text fill="#94a3b8" font-size="8.5" text-anchor="middle" x="310.0" y="156">N (splice)</text>
<rect fill="#6366f1" height="26" opacity="0.18" rx="4" stroke="#6366f1" stroke-width="1" width="160" x="370" y="150"/>
<text fill="#6366f1" font-size="9" font-weight="600" text-anchor="middle" x="450.0" y="166.0">Exon 2</text>
<text fill="#059669" font-size="9" font-weight="600" x="540" y="167">✓ true 5′ end recovered</text>
<line stroke="#e2e8f0" stroke-width="1" x1="50" x2="710" y1="194" y2="194"/>
<text fill="#0d9488" font-size="10" font-weight="bold" letter-spacing="0.8" x="60" y="210">PART 2 — N-OP JUNCTION REFINEMENT (Module 2H)</text>
<text fill="#64748b" font-size="10" x="14" y="249">Genome</text>
<rect fill="#6366f1" height="26" rx="4" width="140" x="90" y="232"/>
<text fill="#ffffff" font-size="11" font-weight="600" text-anchor="middle" x="160.0" y="249.0">Exon 1</text>
<line stroke="#94a3b8" stroke-dasharray="6,4" stroke-width="1.5" x1="230" x2="380" y1="245" y2="245"/>
<text fill="#94a3b8" font-size="8.5" text-anchor="middle" x="305.0" y="238">intron</text>
<text fill="#94a3b8" font-size="7" x="232" y="257">GT</text>
<text fill="#94a3b8" font-size="7" text-anchor="end" x="378" y="257">AG</text>
<rect fill="#6366f1" height="26" rx="4" width="150" x="380" y="232"/>
<text fill="#ffffff" font-size="11" font-weight="600" text-anchor="middle" x="455.0" y="249.0">Exon 2</text>
<text fill="#64748b" font-size="10" x="14" y="287">Read</text>
<rect fill="#6366f1" height="26" opacity="0.18" rx="4" stroke="#6366f1" stroke-width="1" width="140" x="90" y="270"/>
<text fill="#6366f1" font-size="9" font-weight="600" text-anchor="middle" x="160.0" y="286.0">Exon 1</text>
<line stroke="#94a3b8" stroke-dasharray="5,3" stroke-width="1.2" x1="230" x2="380" y1="283" y2="283"/>
<rect fill="#6366f1" height="26" opacity="0.18" rx="4" stroke="#6366f1" stroke-width="1" width="150" x="380" y="270"/>
<text fill="#6366f1" font-size="9" font-weight="600" text-anchor="middle" x="455.0" y="286.0">Exon 2</text>
<rect fill="#dc2626" width="3" height="3" rx="1" x="372" y="298" opacity="0.7"/>
<rect fill="#dc2626" width="3" height="3" rx="1" x="376" y="298" opacity="0.7"/>
<rect fill="#dc2626" width="3" height="3" rx="1" x="384" y="298" opacity="0.7"/>
<rect fill="#dc2626" width="3" height="3" rx="1" x="388" y="298" opacity="0.7"/>
<text fill="#dc2626" font-size="7" text-anchor="middle" x="380" y="310">junction-proximal mismatches</text>
<text fill="#94a3b8" font-size="8" font-style="italic" x="540" y="287">annotated N-op</text>
<text fill="#0d9488" font-size="8" font-weight="600" text-anchor="middle" x="380" y="322">HP-aware re-scoring: sequence match > stability > GT-AG > annotation > shift</text>
<text fill="#64748b" font-size="10" x="14" y="349">Corrected</text>
<rect fill="#6366f1" height="26" opacity="0.18" rx="4" stroke="#6366f1" stroke-width="1" width="150" x="90" y="332"/>
<text fill="#6366f1" font-size="9" font-weight="600" text-anchor="middle" x="165.0" y="348.0">Exon 1</text>
<line stroke="#0d9488" stroke-dasharray="5,3" stroke-width="1.5" x1="240" x2="370" y1="345" y2="345"/>
<text fill="#0d9488" font-size="7" font-weight="600" x="242" y="357">GT</text>
<text fill="#0d9488" font-size="7" font-weight="600" text-anchor="end" x="368" y="357">AG</text>
<rect fill="#6366f1" height="26" opacity="0.18" rx="4" stroke="#6366f1" stroke-width="1" width="160" x="370" y="332"/>
<text fill="#6366f1" font-size="9" font-weight="600" text-anchor="middle" x="450.0" y="348.0">Exon 2</text>
<line stroke="#0d9488" stroke-width="1" x1="230" x2="240" y1="328" y2="328"/>
<polygon fill="#0d9488" points="240,328 236,325 236,331"/>
<line stroke="#0d9488" stroke-width="1" x1="380" x2="370" y1="328" y2="328"/>
<polygon fill="#0d9488" points="370,328 374,325 374,331"/>
<text fill="#059669" font-size="9" font-weight="600" x="540" y="349">✓ sequence-optimal junction</text>
<text fill="#94a3b8" font-size="8" font-style="italic" text-anchor="middle" x="380" y="376">sequence evidence always overrides annotation; fast path skips reads already at annotated canonical junctions</text>
</g>
</svg>