<?xml version="1.0" encoding="utf-8" ?>
<svg xmlns="http://www.w3.org/2000/svg" width="760" height="680" viewBox="0 0 760 680">
<rect fill="#ffffff" width="760" height="680"/>
<g font-family="Helvetica Neue, Helvetica, Arial, sans-serif">
<text fill="#1e293b" font-size="14" font-weight="bold" text-anchor="middle" x="380" y="22">Multi-Aligner Rectification Pipeline</text>
<text fill="#2563eb" font-size="10" font-weight="bold" letter-spacing="0.8" x="60" y="40">STAGE 1 — PER-ALIGNER RECTIFICATION</text>
<text fill="#3b82f6" font-size="10" font-weight="700" text-anchor="middle" x="190.0" y="64">minimap2</text>
<rect fill="#3b82f6" height="20" rx="3" width="180" x="100" y="70" opacity="0.10"/>
<rect fill="none" height="20" rx="3" width="180" x="100" y="70" stroke="#3b82f6" stroke-width="0.8"/>
<text fill="#3b82f6" font-size="8" font-weight="600" text-anchor="middle" x="190.0" y="83.0">minimap2.bam</text>
<line stroke="#3b82f6" stroke-width="1.3" x1="190.0" x2="190.0" y1="90" y2="106"/>
<polygon fill="#3b82f6" points="190.0,106 186.5,100 193.5,100"/>
<rect fill="#3b82f6" height="26" rx="5" width="180" x="100" y="106" opacity="0.15"/>
<rect fill="none" height="26" rx="5" width="180" x="100" y="106" stroke="#3b82f6" stroke-width="1.2"/>
<text fill="#3b82f6" font-size="9" font-weight="600" text-anchor="middle" x="190.0" y="122.5">rectify correct</text>
<line stroke="#3b82f6" stroke-width="1.3" x1="190.0" x2="190.0" y1="132" y2="148"/>
<polygon fill="#3b82f6" points="190.0,148 186.5,142 193.5,142"/>
<rect fill="#3b82f6" height="20" rx="3" width="180" x="100" y="148" opacity="0.10"/>
<rect fill="none" height="20" rx="3" width="180" x="100" y="148" stroke="#3b82f6" stroke-width="0.8"/>
<text fill="#3b82f6" font-size="8" font-weight="600" text-anchor="middle" x="190.0" y="161.0">corrected_3ends.tsv</text>
<text fill="#f59e0b" font-size="10" font-weight="700" text-anchor="middle" x="390.0" y="64">mapPacBio</text>
<rect fill="#f59e0b" height="20" rx="3" width="180" x="300" y="70" opacity="0.10"/>
<rect fill="none" height="20" rx="3" width="180" x="300" y="70" stroke="#f59e0b" stroke-width="0.8"/>
<text fill="#f59e0b" font-size="8" font-weight="600" text-anchor="middle" x="390.0" y="83.0">mapPacBio.bam</text>
<line stroke="#f59e0b" stroke-width="1.3" x1="390.0" x2="390.0" y1="90" y2="106"/>
<polygon fill="#f59e0b" points="390.0,106 386.5,100 393.5,100"/>
<rect fill="#f59e0b" height="26" rx="5" width="180" x="300" y="106" opacity="0.15"/>
<rect fill="none" height="26" rx="5" width="180" x="300" y="106" stroke="#f59e0b" stroke-width="1.2"/>
<text fill="#f59e0b" font-size="9" font-weight="600" text-anchor="middle" x="390.0" y="122.5">rectify correct</text>
<line stroke="#f59e0b" stroke-width="1.3" x1="390.0" x2="390.0" y1="132" y2="148"/>
<polygon fill="#f59e0b" points="390.0,148 386.5,142 393.5,142"/>
<rect fill="#f59e0b" height="20" rx="3" width="180" x="300" y="148" opacity="0.10"/>
<rect fill="none" height="20" rx="3" width="180" x="300" y="148" stroke="#f59e0b" stroke-width="0.8"/>
<text fill="#f59e0b" font-size="8" font-weight="600" text-anchor="middle" x="390.0" y="161.0">corrected_3ends.tsv</text>
<text fill="#22c55e" font-size="10" font-weight="700" text-anchor="middle" x="590.0" y="64">gapmm2</text>
<rect fill="#22c55e" height="20" rx="3" width="180" x="500" y="70" opacity="0.10"/>
<rect fill="none" height="20" rx="3" width="180" x="500" y="70" stroke="#22c55e" stroke-width="0.8"/>
<text fill="#22c55e" font-size="8" font-weight="600" text-anchor="middle" x="590.0" y="83.0">gapmm2.bam</text>
<line stroke="#22c55e" stroke-width="1.3" x1="590.0" x2="590.0" y1="90" y2="106"/>
<polygon fill="#22c55e" points="590.0,106 586.5,100 593.5,100"/>
<rect fill="#22c55e" height="26" rx="5" width="180" x="500" y="106" opacity="0.15"/>
<rect fill="none" height="26" rx="5" width="180" x="500" y="106" stroke="#22c55e" stroke-width="1.2"/>
<text fill="#22c55e" font-size="9" font-weight="600" text-anchor="middle" x="590.0" y="122.5">rectify correct</text>
<line stroke="#22c55e" stroke-width="1.3" x1="590.0" x2="590.0" y1="132" y2="148"/>
<polygon fill="#22c55e" points="590.0,148 586.5,142 593.5,142"/>
<rect fill="#22c55e" height="20" rx="3" width="180" x="500" y="148" opacity="0.10"/>
<rect fill="none" height="20" rx="3" width="180" x="500" y="148" stroke="#22c55e" stroke-width="0.8"/>
<text fill="#22c55e" font-size="8" font-weight="600" text-anchor="middle" x="590.0" y="161.0">corrected_3ends.tsv</text>
<text fill="#94a3b8" font-size="7.5" font-style="italic" text-anchor="end" x="748" y="112">3′ walk-back</text>
<text fill="#94a3b8" font-size="7.5" font-style="italic" text-anchor="end" x="748" y="122">5′ junction rescue</text>
<text fill="#94a3b8" font-size="7.5" font-style="italic" text-anchor="end" x="748" y="132">soft-clip rescue</text>
<line stroke="#e2e8f0" stroke-width="1" x1="50" x2="710" y1="184" y2="184"/>
<text fill="#059669" font-size="10" font-weight="bold" letter-spacing="0.8" x="60" y="198">STAGE 2 — CONSENSUS SELECTION</text>
<line stroke="#3b82f6" stroke-width="1.2" x1="190.0" x2="380.0" y1="216" y2="242" opacity="0.5"/>
<line stroke="#f59e0b" stroke-width="1.2" x1="390.0" x2="380.0" y1="216" y2="242" opacity="0.5"/>
<line stroke="#22c55e" stroke-width="1.2" x1="590.0" x2="380.0" y1="216" y2="242" opacity="0.5"/>
<polygon fill="#059669" points="380.0,242 376.0,235 384.0,235"/>
<rect fill="#059669" height="30" rx="5" width="260" x="250.0" y="242" opacity="0.15"/>
<rect fill="none" height="30" rx="5" width="260" x="250.0" y="242" stroke="#059669" stroke-width="1.2"/>
<text fill="#059669" font-size="9" font-weight="600" text-anchor="middle" x="380.0" y="260.5">rectify consensus</text>
<text fill="#475569" font-size="9" font-weight="600" text-anchor="middle" x="380.0" y="286">per-read winner selection (priority order):</text>
<rect fill="#059669" height="20" rx="10" width="68" x="197.0" y="302" opacity="0.20"/>
<rect fill="none" height="20" rx="10" width="68" x="197.0" y="302" stroke="#059669" stroke-width="0.8"/>
<text fill="#059669" font-size="8" font-weight="600" text-anchor="middle" x="231.0" y="315.0">5′ rescued</text>
<line stroke="#94a3b8" stroke-width="1" x1="266.0" x2="272.0" y1="312.0" y2="312.0"/>
<polygon fill="#94a3b8" points="272.0,312.0 268.0,309.5 268.0,314.5"/>
<rect fill="#475569" height="20" rx="10" width="70" x="273.0" y="302" opacity="0.12"/>
<rect fill="none" height="20" rx="10" width="70" x="273.0" y="302" stroke="#475569" stroke-width="0.8"/>
<text fill="#475569" font-size="8" font-weight="600" text-anchor="middle" x="308.0" y="315.0">confidence</text>
<line stroke="#94a3b8" stroke-width="1" x1="344.0" x2="350.0" y1="312.0" y2="312.0"/>
<polygon fill="#94a3b8" points="350.0,312.0 346.0,309.5 346.0,314.5"/>
<rect fill="#475569" height="20" rx="10" width="82" x="351.0" y="302" opacity="0.12"/>
<rect fill="none" height="20" rx="10" width="82" x="351.0" y="302" stroke="#475569" stroke-width="0.8"/>
<text fill="#475569" font-size="8" font-weight="600" text-anchor="middle" x="392.0" y="315.0">3′ agreement</text>
<line stroke="#94a3b8" stroke-width="1" x1="434.0" x2="440.0" y1="312.0" y2="312.0"/>
<polygon fill="#94a3b8" points="440.0,312.0 436.0,309.5 436.0,314.5"/>
<rect fill="#475569" height="20" rx="10" width="42" x="441.0" y="302" opacity="0.12"/>
<rect fill="none" height="20" rx="10" width="42" x="441.0" y="302" stroke="#475569" stroke-width="0.8"/>
<text fill="#475569" font-size="8" font-weight="600" text-anchor="middle" x="462.0" y="315.0">span</text>
<line stroke="#94a3b8" stroke-width="1" x1="484.0" x2="490.0" y1="312.0" y2="312.0"/>
<polygon fill="#94a3b8" points="490.0,312.0 486.0,309.5 486.0,314.5"/>
<rect fill="#475569" height="20" rx="10" width="72" x="491.0" y="302" opacity="0.12"/>
<rect fill="none" height="20" rx="10" width="72" x="491.0" y="302" stroke="#475569" stroke-width="0.8"/>
<text fill="#475569" font-size="8" font-weight="600" text-anchor="middle" x="527.0" y="315.0">n_junctions</text>
<line stroke="#059669" stroke-width="1.3" x1="380.0" x2="380.0" y1="332" y2="350"/>
<polygon fill="#059669" points="380.0,350 376.5,344 383.5,344"/>
<rect fill="#059669" height="22" rx="3" width="200" x="280.0" y="350" opacity="0.10"/>
<rect fill="none" height="22" rx="3" width="200" x="280.0" y="350" stroke="#059669" stroke-width="0.8"/>
<text fill="#059669" font-size="8" font-weight="600" text-anchor="middle" x="380.0" y="364.0">corrected_3ends.tsv (consensus)</text>
<text fill="#94a3b8" font-size="8" font-style="italic" x="490.0" y="364.0">tags: XA (winner), XC (confidence), XN (agreement)</text>
<line stroke="#e2e8f0" stroke-width="1" x1="50" x2="710" y1="388" y2="388"/>
<text fill="#0d9488" font-size="10" font-weight="bold" letter-spacing="0.8" x="60" y="402">STAGE 3 — CHIMERIC RECONSTRUCTION (optional)</text>
<text fill="#64748b" font-size="10" x="14" y="437">Genome</text>
<rect fill="#6366f1" height="22" rx="4" width="110" x="90" y="422"/>
<text fill="#ffffff" font-size="11" font-weight="600" text-anchor="middle" x="145.0" y="437.0">Exon A</text>
<line stroke="#94a3b8" stroke-dasharray="6,4" stroke-width="1.5" x1="200" x2="250" y1="433" y2="433"/>
<text fill="#94a3b8" font-size="8.5" text-anchor="middle" x="225.0" y="426">intron 1</text>
<rect fill="#6366f1" height="22" rx="4" width="100" x="250" y="422"/>
<text fill="#ffffff" font-size="11" font-weight="600" text-anchor="middle" x="300.0" y="437.0">Exon B</text>
<line stroke="#94a3b8" stroke-dasharray="6,4" stroke-width="1.5" x1="350" x2="410" y1="433" y2="433"/>
<text fill="#94a3b8" font-size="8.5" text-anchor="middle" x="380.0" y="426">intron 2</text>
<rect fill="#6366f1" height="22" rx="4" width="110" x="410" y="422"/>
<text fill="#ffffff" font-size="11" font-weight="600" text-anchor="middle" x="465.0" y="437.0">Exon C</text>
<text fill="#3b82f6" font-size="9" font-weight="600" x="14" y="468">minimap2</text>
<rect fill="#3b82f6" height="22" opacity="0.18" rx="4" stroke="#3b82f6" stroke-width="1" width="110" x="90" y="454"/>
<text fill="#3b82f6" font-size="9" font-weight="600" text-anchor="middle" x="145.0" y="468.0">A</text>
<line stroke="#3b82f6" stroke-dasharray="4,3" stroke-width="1" x1="200" x2="250" y1="465" y2="465"/>
<rect fill="#3b82f6" height="22" opacity="0.18" rx="4" stroke="#3b82f6" stroke-width="1" width="270" x="250" y="454"/>
<text fill="#3b82f6" font-size="9" font-weight="600" text-anchor="middle" x="385.0" y="468.0">B + C (unspliced)</text>
<text fill="#059669" font-size="8" x="530" y="463">✓ junction 1</text>
<text fill="#dc2626" font-size="8" x="530" y="475">✗ junction 2</text>
<text fill="#f59e0b" font-size="9" font-weight="600" x="14" y="498">mapPacBio</text>
<rect fill="#f59e0b" height="22" opacity="0.18" rx="4" stroke="#f59e0b" stroke-width="1" width="260" x="90" y="484"/>
<text fill="#f59e0b" font-size="9" font-weight="600" text-anchor="middle" x="220.0" y="498.0">A + B (unspliced)</text>
<line stroke="#f59e0b" stroke-dasharray="4,3" stroke-width="1" x1="350" x2="410" y1="495" y2="495"/>
<rect fill="#f59e0b" height="22" opacity="0.18" rx="4" stroke="#f59e0b" stroke-width="1" width="110" x="410" y="484"/>
<text fill="#f59e0b" font-size="9" font-weight="600" text-anchor="middle" x="465.0" y="498.0">C</text>
<text fill="#dc2626" font-size="8" x="530" y="493">✗ junction 1</text>
<text fill="#059669" font-size="8" x="530" y="505">✓ junction 2</text>
<line stroke="#0d9488" stroke-width="1.3" x1="380.0" x2="380.0" y1="512" y2="528"/>
<polygon fill="#0d9488" points="380.0,528 376.5,522 383.5,522"/>
<text fill="#0d9488" font-size="8" font-weight="600" x="388.0" y="522">stitch</text>
<text fill="#0d9488" font-size="9" font-weight="600" x="14" y="542">chimeric</text>
<rect fill="#ccfbf1" height="22" rx="4" stroke="#0d9488" stroke-width="1.2" width="110" x="90" y="528"/>
<text fill="#0d9488" font-size="9" font-weight="600" text-anchor="middle" x="145.0" y="542.0">A</text>
<line stroke="#0d9488" stroke-dasharray="4,3" stroke-width="1.2" x1="200" x2="250" y1="539" y2="539"/>
<rect fill="#ccfbf1" height="22" rx="4" stroke="#0d9488" stroke-width="1.2" width="100" x="250" y="528"/>
<text fill="#0d9488" font-size="9" font-weight="600" text-anchor="middle" x="300.0" y="542.0">B</text>
<line stroke="#0d9488" stroke-dasharray="4,3" stroke-width="1.2" x1="350" x2="410" y1="539" y2="539"/>
<rect fill="#ccfbf1" height="22" rx="4" stroke="#0d9488" stroke-width="1.2" width="110" x="410" y="528"/>
<text fill="#0d9488" font-size="9" font-weight="600" text-anchor="middle" x="465.0" y="542.0">C</text>
<text fill="#059669" font-size="8" font-weight="600" x="530" y="542">✓ both junctions recovered</text>
</g>
</svg>