<?xml version="1.0" encoding="utf-8" ?>
<svg xmlns="http://www.w3.org/2000/svg" width="760" height="530" viewBox="0 0 760 530">
<rect fill="#ffffff" width="760" height="530"/>
<g font-family="Helvetica Neue, Helvetica, Arial, sans-serif">
<text fill="#1e293b" font-size="14" font-weight="bold" text-anchor="middle" x="380" y="22">Multi-Aligner Consensus: Selecting the Optimal Alignment</text>
<text fill="#475569" font-size="10" font-weight="bold" letter-spacing="0.8" x="60" y="40">SAME READ, THREE ALIGNERS → THREE DIFFERENT STRUCTURES</text>
<text fill="#64748b" font-size="10" x="14" y="80">Genome</text>
<rect fill="#6366f1" height="24" rx="4" width="160" x="120" y="64"/>
<text fill="#ffffff" font-size="11" font-weight="600" text-anchor="middle" x="200.0" y="80.0">Exon 1</text>
<line stroke="#94a3b8" stroke-dasharray="6,4" stroke-width="1.5" x1="280" x2="390" y1="76" y2="76"/>
<text fill="#94a3b8" font-size="8.5" text-anchor="middle" x="335.0" y="69">intron</text>
<text fill="#94a3b8" font-size="8" x="284" y="86">GT</text>
<text fill="#94a3b8" font-size="8" text-anchor="end" x="386" y="86">AG</text>
<rect fill="#6366f1" height="24" rx="4" width="150" x="390" y="64"/>
<text fill="#ffffff" font-size="11" font-weight="600" text-anchor="middle" x="465.0" y="80.0">Exon 2</text>
<text fill="#3b82f6" font-size="10" font-weight="600" x="14" y="120">minimap2</text>
<rect fill="#fee2e2" height="24" rx="4" stroke="#dc2626" stroke-dasharray="4,2" stroke-width="0.8" opacity="0.6" width="160" x="120" y="104"/>
<text fill="#dc2626" font-size="8" font-style="italic" text-anchor="middle" x="200" y="119">soft-clipped</text>
<rect fill="#3b82f6" height="24" opacity="0.18" rx="4" stroke="#3b82f6" stroke-width="1" width="150" x="390" y="104"/>
<text fill="#3b82f6" font-size="9" font-weight="600" text-anchor="middle" x="465.0" y="119.0">Exon 2</text>
<text fill="#dc2626" font-size="8" x="548" y="116">✗ no junction found</text>
<text fill="#dc2626" font-size="8" x="548" y="128">✗ 5′ end entirely soft-clipped</text>
<text fill="#22c55e" font-size="10" font-weight="600" x="14" y="162">gapmm2</text>
<rect fill="#22c55e" height="24" opacity="0.18" rx="4" stroke="#22c55e" stroke-width="1" width="160" x="120" y="146"/>
<text fill="#22c55e" font-size="9" font-weight="600" text-anchor="middle" x="200.0" y="161.0">Exon 1</text>
<line stroke="#22c55e" stroke-dasharray="5,3" stroke-width="1" x1="280" x2="390" y1="158" y2="158"/>
<rect fill="#22c55e" height="24" opacity="0.18" rx="4" stroke="#22c55e" stroke-width="1" width="150" x="390" y="146"/>
<text fill="#22c55e" font-size="9" font-weight="600" text-anchor="middle" x="465.0" y="161.0">Exon 2</text>
<polygon fill="#dc2626" opacity="0.8" points="276,170 280,176 284,170"/>
<text fill="#dc2626" font-size="6" text-anchor="middle" x="280" y="183">ins</text>
<polygon fill="#dc2626" opacity="0.8" points="392,170 396,176 400,170"/>
<text fill="#dc2626" font-size="6" text-anchor="middle" x="396" y="183">del</text>
<text fill="#d97706" font-size="8" x="548" y="158">forces annotated GT-AG junction</text>
<text fill="#dc2626" font-size="8" x="548" y="170">✗ junction-proximal indels</text>
<text fill="#f59e0b" font-size="10" font-weight="600" x="14" y="218">mapPacBio</text>
<rect fill="#f59e0b" height="24" opacity="0.18" rx="4" stroke="#f59e0b" stroke-width="1" width="170" x="120" y="202"/>
<text fill="#f59e0b" font-size="9" font-weight="600" text-anchor="middle" x="205.0" y="217.0">Exon 1</text>
<line stroke="#f59e0b" stroke-dasharray="5,3" stroke-width="1" x1="290" x2="398" y1="214" y2="214"/>
<rect fill="#f59e0b" height="24" opacity="0.18" rx="4" stroke="#f59e0b" stroke-width="1" width="142" x="398" y="202"/>
<text fill="#f59e0b" font-size="9" font-weight="600" text-anchor="middle" x="469.0" y="217.0">Exon 2</text>
<text fill="#059669" font-size="8" x="548" y="214">✓ novel GC-AG junction (correct)</text>
<text fill="#059669" font-size="8" x="548" y="226">✓ clean alignment, no indels</text>
<text fill="#475569" font-size="9" font-style="italic" text-anchor="middle" x="380" y="240">Each aligner makes different structural decisions — scoring selects the best overall alignment per read</text>
<line stroke="#e2e8f0" stroke-width="1" x1="50" x2="710" y1="252" y2="252"/>
<text fill="#475569" font-size="10" font-weight="bold" letter-spacing="0.8" x="60" y="268">SCORE EACH ALIGNMENT → SELECT BEST PER READ</text>
<text fill="#94a3b8" font-size="8" font-weight="600" text-anchor="middle" x="555" y="288">junction</text>
<text fill="#94a3b8" font-size="8" font-weight="600" text-anchor="middle" x="610" y="288">annotated</text>
<text fill="#94a3b8" font-size="8" font-weight="600" text-anchor="middle" x="662" y="288">indels</text>
<text fill="#94a3b8" font-size="8" font-weight="600" text-anchor="middle" x="712" y="288">5′ cov.</text>
<text fill="#94a3b8" font-size="8" font-weight="600" text-anchor="middle" x="748" y="288">score</text>
<text fill="#22c55e" font-size="10" font-weight="600" x="14" y="312">gapmm2</text>
<rect fill="#22c55e" height="24" opacity="0.18" rx="4" stroke="#22c55e" stroke-width="1" width="160" x="120" y="296"/>
<text fill="#22c55e" font-size="9" font-weight="600" text-anchor="middle" x="200.0" y="311.0">Exon 1</text>
<line stroke="#22c55e" stroke-dasharray="5,3" stroke-width="1" x1="280" x2="390" y1="308" y2="308"/>
<rect fill="#22c55e" height="24" opacity="0.18" rx="4" stroke="#22c55e" stroke-width="1" width="150" x="390" y="296"/>
<text fill="#22c55e" font-size="9" font-weight="600" text-anchor="middle" x="465.0" y="311.0">Exon 2</text>
<polygon fill="#dc2626" opacity="0.6" points="278,320 281,323 284,320"/>
<polygon fill="#dc2626" opacity="0.6" points="391,320 394,323 397,320"/>
<text fill="#059669" font-size="9" text-anchor="middle" x="555" y="312">GT-AG</text>
<text fill="#059669" font-size="10" font-weight="600" text-anchor="middle" x="610" y="312">✓</text>
<text fill="#dc2626" font-size="9" font-weight="600" text-anchor="middle" x="662" y="312">2 prox.</text>
<text fill="#059669" font-size="9" font-weight="600" text-anchor="middle" x="712" y="312">full</text>
<text fill="#059669" font-size="12" font-weight="700" text-anchor="middle" x="748" y="312">4</text>
<text fill="#059669" font-size="9" font-weight="700" x="762" y="312">← best</text>
<text fill="#3b82f6" font-size="10" font-weight="600" x="14" y="342">minimap2</text>
<rect fill="#fee2e2" height="24" rx="3" stroke="#dc2626" stroke-dasharray="3,2" stroke-width="0.6" opacity="0.4" width="160" x="120" y="326"/>
<rect fill="#3b82f6" height="24" opacity="0.18" rx="4" stroke="#3b82f6" stroke-width="1" width="150" x="390" y="326"/>
<text fill="#3b82f6" font-size="9" font-weight="600" text-anchor="middle" x="465.0" y="341.0">Exon 2</text>
<text fill="#94a3b8" font-size="9" text-anchor="middle" x="555" y="342">—</text>
<text fill="#94a3b8" font-size="10" font-weight="600" text-anchor="middle" x="610" y="342">—</text>
<text fill="#059669" font-size="9" font-weight="600" text-anchor="middle" x="662" y="342">none</text>
<text fill="#dc2626" font-size="9" font-weight="600" text-anchor="middle" x="712" y="342">none</text>
<text fill="#475569" font-size="12" font-weight="600" text-anchor="middle" x="748" y="342">2</text>
<text fill="#f59e0b" font-size="10" font-weight="600" x="14" y="372">mapPacBio</text>
<rect fill="#f59e0b" height="24" opacity="0.18" rx="4" stroke="#f59e0b" stroke-width="1" width="170" x="120" y="356"/>
<text fill="#f59e0b" font-size="9" font-weight="600" text-anchor="middle" x="205.0" y="371.0">Exon 1</text>
<line stroke="#f59e0b" stroke-dasharray="5,3" stroke-width="1" x1="290" x2="398" y1="368" y2="368"/>
<rect fill="#f59e0b" height="24" opacity="0.18" rx="4" stroke="#f59e0b" stroke-width="1" width="142" x="398" y="356"/>
<text fill="#f59e0b" font-size="9" font-weight="600" text-anchor="middle" x="469.0" y="371.0">Exon 2</text>
<text fill="#d97706" font-size="9" text-anchor="middle" x="555" y="372">GC-AG</text>
<text fill="#dc2626" font-size="10" font-weight="600" text-anchor="middle" x="610" y="372">✗</text>
<text fill="#059669" font-size="9" font-weight="600" text-anchor="middle" x="662" y="372">none</text>
<text fill="#059669" font-size="9" font-weight="600" text-anchor="middle" x="712" y="372">full</text>
<text fill="#475569" font-size="12" font-weight="600" text-anchor="middle" x="748" y="372">1</text>
<line stroke="#e2e8f0" stroke-width="1" x1="50" x2="710" y1="390" y2="390"/>
<text fill="#475569" font-size="10" font-weight="600" text-anchor="middle" x="380" y="408">Best alignment per read → consensus BAM</text>
</g>
</svg>