<?xml version="1.0" encoding="utf-8" ?>
<svg xmlns="http://www.w3.org/2000/svg" width="760" height="400" viewBox="0 0 760 400">
<rect fill="#ffffff" width="760" height="400"/>
<g font-family="Helvetica Neue, Helvetica, Arial, sans-serif">
<text fill="#1e293b" font-size="14" font-weight="bold" text-anchor="middle" x="380" y="22">Multi-Aligner Consensus Pipeline</text>
<text fill="#475569" font-size="10" font-weight="bold" letter-spacing="0.8" x="60" y="42">STEP 1  ALIGN WITH MULTIPLE ALIGNERS</text>
<text fill="#64748b" font-size="10" x="14" y="81">Genome</text>
<rect fill="#6366f1" height="26" rx="4" width="160" x="100" y="64"/>
<text fill="#ffffff" font-size="11" font-weight="600" text-anchor="middle" x="180.0" y="81.0">Exon 1</text>
<line stroke="#94a3b8" stroke-dasharray="6,4" stroke-width="1.5" x1="260" x2="370" y1="77" y2="77"/>
<text fill="#94a3b8" font-size="8.5" text-anchor="middle" x="315.0" y="70">intron</text>
<rect fill="#6366f1" height="26" rx="4" width="160" x="370" y="64"/>
<text fill="#ffffff" font-size="11" font-weight="600" text-anchor="middle" x="450.0" y="81.0">Exon 2</text>
<text fill="#3b82f6" font-size="10" font-weight="600" x="14" y="119">minimap2</text>
<rect fill="#3b82f6" height="26" opacity="0.18" rx="4" stroke="#3b82f6" stroke-width="1" width="160" x="100" y="102"/>
<text fill="#3b82f6" font-size="9" font-weight="600" text-anchor="middle" x="180.0" y="118.0">Exon 1</text>
<line stroke="#3b82f6" stroke-dasharray="5,3" stroke-width="1" x1="260" x2="370" y1="115" y2="115"/>
<rect fill="#3b82f6" height="26" opacity="0.18" rx="4" stroke="#3b82f6" stroke-width="1" width="160" x="370" y="102"/>
<text fill="#3b82f6" font-size="9" font-weight="600" text-anchor="middle" x="450.0" y="118.0">Exon 2</text>
<text fill="#f59e0b" font-size="10" font-weight="600" x="14" y="155">pbmm2</text>
<rect fill="#fee2e2" height="26" rx="4" stroke="#dc2626" stroke-dasharray="4,3" stroke-width="1" width="50" x="320" y="138"/>
<text fill="#dc2626" font-size="9" text-anchor="middle" x="345.0" y="154.0">SC</text>
<rect fill="#f59e0b" height="26" opacity="0.18" rx="4" stroke="#f59e0b" stroke-width="1" width="160" x="370" y="138"/>
<text fill="#f59e0b" font-size="9" font-weight="600" text-anchor="middle" x="450.0" y="154.0">Exon 2</text>
<text fill="#22c55e" font-size="10" font-weight="600" x="14" y="191">gapmm2</text>
<rect fill="#fee2e2" height="26" rx="4" stroke="#dc2626" stroke-dasharray="4,3" stroke-width="1" width="35" x="100" y="174"/>
<text fill="#dc2626" font-size="9" text-anchor="middle" x="117.5" y="190.0">SC</text>
<rect fill="#22c55e" height="26" opacity="0.18" rx="4" stroke="#22c55e" stroke-width="1" width="125" x="135" y="174"/>
<text fill="#22c55e" font-size="9" font-weight="600" text-anchor="middle" x="197.5" y="190.0">Exon 1</text>
<line stroke="#22c55e" stroke-dasharray="5,3" stroke-width="1" x1="260" x2="370" y1="187" y2="187"/>
<rect fill="#22c55e" height="26" opacity="0.18" rx="4" stroke="#22c55e" stroke-width="1" width="160" x="370" y="174"/>
<text fill="#22c55e" font-size="9" font-weight="600" text-anchor="middle" x="450.0" y="190.0">Exon 2</text>
<line stroke="#e2e8f0" stroke-width="1" x1="50" x2="710" y1="216" y2="216"/>
<text fill="#475569" font-size="10" font-weight="bold" letter-spacing="0.8" x="60" y="234">STEP 2  RESCUE SOFT-CLIPS THROUGH KNOWN JUNCTIONS</text>
<text fill="#64748b" font-size="10" x="14" y="271">Genome</text>
<rect fill="#6366f1" height="26" rx="4" width="160" x="100" y="254"/>
<text fill="#ffffff" font-size="11" font-weight="600" text-anchor="middle" x="180.0" y="271.0">Exon 1</text>
<line stroke="#94a3b8" stroke-dasharray="6,4" stroke-width="1.5" x1="260" x2="370" y1="267" y2="267"/>
<text fill="#94a3b8" font-size="8.5" text-anchor="middle" x="315.0" y="260">intron</text>
<rect fill="#6366f1" height="26" rx="4" width="160" x="370" y="254"/>
<text fill="#ffffff" font-size="11" font-weight="600" text-anchor="middle" x="450.0" y="271.0">Exon 2</text>
<text fill="#3b82f6" font-size="10" font-weight="600" x="14" y="305">minimap2</text>
<rect fill="#3b82f6" height="26" opacity="0.18" rx="4" stroke="#3b82f6" stroke-width="1" width="160" x="100" y="288"/>
<text fill="#3b82f6" font-size="9" font-weight="600" text-anchor="middle" x="180.0" y="304.0">Exon 1</text>
<line stroke="#3b82f6" stroke-dasharray="5,3" stroke-width="1" x1="260" x2="370" y1="301" y2="301"/>
<rect fill="#3b82f6" height="26" opacity="0.18" rx="4" stroke="#3b82f6" stroke-width="1" width="160" x="370" y="288"/>
<text fill="#3b82f6" font-size="9" font-weight="600" text-anchor="middle" x="450.0" y="304.0">Exon 2</text>
<text fill="#f59e0b" font-size="10" font-weight="600" x="14" y="337">pbmm2</text>
<rect fill="#f59e0b" height="26" opacity="0.18" rx="4" stroke="#f59e0b" stroke-width="1" width="160" x="100" y="320"/>
<text fill="#f59e0b" font-size="9" font-weight="600" text-anchor="middle" x="180.0" y="336.0">Exon 1</text>
<line stroke="#f59e0b" stroke-dasharray="5,3" stroke-width="1" x1="260" x2="370" y1="333" y2="333"/>
<rect fill="#f59e0b" height="26" opacity="0.18" rx="4" stroke="#f59e0b" stroke-width="1" width="160" x="370" y="320"/>
<text fill="#f59e0b" font-size="9" font-weight="600" text-anchor="middle" x="450.0" y="336.0">Exon 2</text>
<text fill="#0d9488" font-size="10" font-weight="600" x="540" y="337">✓ rescued</text>
<text fill="#22c55e" font-size="10" font-weight="600" x="14" y="369">gapmm2</text>
<rect fill="#22c55e" height="26" opacity="0.18" rx="4" stroke="#22c55e" stroke-width="1" width="160" x="100" y="352"/>
<text fill="#22c55e" font-size="9" font-weight="600" text-anchor="middle" x="180.0" y="368.0">Exon 1</text>
<line stroke="#22c55e" stroke-dasharray="5,3" stroke-width="1" x1="260" x2="370" y1="365" y2="365"/>
<rect fill="#22c55e" height="26" opacity="0.18" rx="4" stroke="#22c55e" stroke-width="1" width="160" x="370" y="352"/>
<text fill="#22c55e" font-size="9" font-weight="600" text-anchor="middle" x="450.0" y="368.0">Exon 2</text>
<text fill="#0d9488" font-size="10" font-weight="600" x="540" y="369">✓ rescued</text>
<line stroke="#e2e8f0" stroke-width="1" x1="50" x2="710" y1="390" y2="390"/>
<text fill="#475569" font-size="10" font-weight="bold" letter-spacing="0.8" x="60" y="408">STEP 3  SCORE → SELECT BEST PER READ → CONSENSUS BAM</text>
</g>
</svg>