<?xml version="1.0" encoding="utf-8" ?>
<svg xmlns="http://www.w3.org/2000/svg" width="760" height="440" viewBox="0 0 760 440">
<rect fill="#ffffff" width="760" height="440"/>
<g font-family="Helvetica Neue, Helvetica, Arial, sans-serif">
<text fill="#1e293b" font-size="14" font-weight="bold" text-anchor="middle" x="380" y="22">DRS Poly(A) Pre-Trimming</text>
<text fill="#475569" font-size="10" font-weight="bold" letter-spacing="0.8" x="60" y="40">RAW DRS READ (RNA 5′ → 3′)</text>
<text fill="#64748b" font-size="10" x="14" y="76">Read</text>
<rect fill="#6366f1" height="24" opacity="0.18" rx="4" stroke="#6366f1" stroke-width="1" width="160" x="70" y="60"/>
<text fill="#6366f1" font-size="9" font-weight="600" text-anchor="middle" x="150.0" y="75.0">transcript body</text>
<rect fill="#dbeafe" height="24" rx="3" width="26" x="234" y="60" stroke="#cbd5e1" stroke-width="0.7"/><text fill="#1e40af" font-size="11" font-weight="600" text-anchor="middle" x="247" y="76">G</text>
<rect fill="#ffedd5" height="24" rx="3" width="26" x="260" y="60" stroke="#cbd5e1" stroke-width="0.7"/><text fill="#9a3412" font-size="11" font-weight="600" text-anchor="middle" x="273" y="76">T</text>
<rect fill="#f3e8ff" height="24" rx="3" width="26" x="286" y="60" stroke="#cbd5e1" stroke-width="0.7"/><text fill="#6b21a8" font-size="11" font-weight="600" text-anchor="middle" x="299" y="76">C</text>
<rect fill="#dbeafe" height="24" rx="3" width="26" x="312" y="60" stroke="#2563eb" stroke-width="0.7"/><text fill="#2563eb" font-size="11" font-weight="600" text-anchor="middle" x="325" y="76">A</text>
<rect fill="#dbeafe" height="24" rx="3" width="26" x="338" y="60" stroke="#2563eb" stroke-width="0.7"/><text fill="#2563eb" font-size="11" font-weight="600" text-anchor="middle" x="351" y="76">A</text>
<rect fill="#dbeafe" height="24" rx="3" width="26" x="364" y="60" stroke="#2563eb" stroke-width="0.7"/><text fill="#2563eb" font-size="11" font-weight="600" text-anchor="middle" x="377" y="76">A</text>
<rect fill="#dbeafe" height="24" rx="3" width="26" x="390" y="60" stroke="#2563eb" stroke-width="0.7"/><text fill="#2563eb" font-size="11" font-weight="600" text-anchor="middle" x="403" y="76">A</text>
<rect fill="#dbeafe" height="24" rx="3" width="26" x="416" y="60" stroke="#2563eb" stroke-width="0.7"/><text fill="#2563eb" font-size="11" font-weight="600" text-anchor="middle" x="429" y="76">A</text>
<rect fill="#fef9c3" height="24" rx="3" width="26" x="442" y="60" stroke="#ca8a04" stroke-width="0.7"/><text fill="#ca8a04" font-size="11" font-weight="600" text-anchor="middle" x="455" y="76">T</text>
<rect fill="#dbeafe" height="24" rx="3" width="26" x="468" y="60" stroke="#2563eb" stroke-width="0.7"/><text fill="#2563eb" font-size="11" font-weight="600" text-anchor="middle" x="481" y="76">A</text>
<rect fill="#dbeafe" height="24" rx="3" width="26" x="494" y="60" stroke="#2563eb" stroke-width="0.7"/><text fill="#2563eb" font-size="11" font-weight="600" text-anchor="middle" x="507" y="76">A</text>
<rect fill="#dbeafe" height="24" rx="3" width="26" x="520" y="60" stroke="#2563eb" stroke-width="0.7"/><text fill="#2563eb" font-size="11" font-weight="600" text-anchor="middle" x="533" y="76">A</text>
<rect fill="#fef3c7" height="24" rx="3" width="26" x="546" y="60" stroke="#d97706" stroke-width="0.7"/><text fill="#d97706" font-size="11" font-weight="600" text-anchor="middle" x="559" y="76">T</text>
<rect fill="#fef3c7" height="24" rx="3" width="26" x="572" y="60" stroke="#d97706" stroke-width="0.7"/><text fill="#d97706" font-size="11" font-weight="600" text-anchor="middle" x="585" y="76">C</text>
<rect fill="#fef3c7" height="24" rx="3" width="26" x="598" y="60" stroke="#d97706" stroke-width="0.7"/><text fill="#d97706" font-size="11" font-weight="600" text-anchor="middle" x="611" y="76">T</text>
<path d="M312,85 L312,90 L546,90 L546,85" fill="none" stroke="#2563eb" stroke-width="1" opacity="0.6"/>
<text fill="#2563eb" font-size="8.5" text-anchor="middle" x="429.0" y="102">poly(A) tail</text>
<path d="M546,85 L546,90 L624,90 L624,85" fill="none" stroke="#d97706" stroke-width="1" opacity="0.6"/>
<text fill="#d97706" font-size="8.5" text-anchor="middle" x="585.0" y="102">adapter stub</text>
<text fill="#ca8a04" font-size="7" font-weight="600" text-anchor="middle" x="455" y="56">T error</text>
<text fill="#94a3b8" font-size="8" x="40" y="75">5′</text>
<text fill="#94a3b8" font-size="8" x="630" y="75">3′</text>
<line stroke="#e2e8f0" stroke-width="1" x1="50" x2="710" y1="122" y2="122"/>
<text fill="#475569" font-size="10" font-weight="bold" letter-spacing="0.8" x="60" y="138">THREE-PASS TRIMMING</text>
<text fill="#d97706" font-size="9" font-weight="700" x="14" y="176">Pass 0</text>
<rect fill="#6366f1" height="24" opacity="0.18" rx="4" stroke="#6366f1" stroke-width="1" width="160" x="70" y="160"/>
<text fill="#6366f1" font-size="9" font-weight="600" text-anchor="middle" x="150.0" y="175.0">transcript body</text>
<rect fill="#dbeafe" height="24" rx="3" width="26" x="234" y="160" stroke="#cbd5e1" stroke-width="0.7"/><text fill="#1e40af" font-size="11" font-weight="600" text-anchor="middle" x="247" y="176">G</text>
<rect fill="#ffedd5" height="24" rx="3" width="26" x="260" y="160" stroke="#cbd5e1" stroke-width="0.7"/><text fill="#9a3412" font-size="11" font-weight="600" text-anchor="middle" x="273" y="176">T</text>
<rect fill="#f3e8ff" height="24" rx="3" width="26" x="286" y="160" stroke="#cbd5e1" stroke-width="0.7"/><text fill="#6b21a8" font-size="11" font-weight="600" text-anchor="middle" x="299" y="176">C</text>
<rect fill="#dbeafe" height="24" rx="3" width="26" x="312" y="160" stroke="#2563eb" stroke-width="0.7"/><text fill="#2563eb" font-size="11" font-weight="600" text-anchor="middle" x="325" y="176">A</text>
<rect fill="#dbeafe" height="24" rx="3" width="26" x="338" y="160" stroke="#2563eb" stroke-width="0.7"/><text fill="#2563eb" font-size="11" font-weight="600" text-anchor="middle" x="351" y="176">A</text>
<rect fill="#dbeafe" height="24" rx="3" width="26" x="364" y="160" stroke="#2563eb" stroke-width="0.7"/><text fill="#2563eb" font-size="11" font-weight="600" text-anchor="middle" x="377" y="176">A</text>
<rect fill="#dbeafe" height="24" rx="3" width="26" x="390" y="160" stroke="#2563eb" stroke-width="0.7"/><text fill="#2563eb" font-size="11" font-weight="600" text-anchor="middle" x="403" y="176">A</text>
<rect fill="#dbeafe" height="24" rx="3" width="26" x="416" y="160" stroke="#2563eb" stroke-width="0.7"/><text fill="#2563eb" font-size="11" font-weight="600" text-anchor="middle" x="429" y="176">A</text>
<rect fill="#fef9c3" height="24" rx="3" width="26" x="442" y="160" stroke="#ca8a04" stroke-width="0.7"/><text fill="#ca8a04" font-size="11" font-weight="600" text-anchor="middle" x="455" y="176">T</text>
<rect fill="#dbeafe" height="24" rx="3" width="26" x="468" y="160" stroke="#2563eb" stroke-width="0.7"/><text fill="#2563eb" font-size="11" font-weight="600" text-anchor="middle" x="481" y="176">A</text>
<rect fill="#dbeafe" height="24" rx="3" width="26" x="494" y="160" stroke="#2563eb" stroke-width="0.7"/><text fill="#2563eb" font-size="11" font-weight="600" text-anchor="middle" x="507" y="176">A</text>
<rect fill="#dbeafe" height="24" rx="3" width="26" x="520" y="160" stroke="#2563eb" stroke-width="0.7"/><text fill="#2563eb" font-size="11" font-weight="600" text-anchor="middle" x="533" y="176">A</text>
<rect fill="#fef3c7" height="24" rx="3" width="26" x="546" y="160" stroke="#d97706" stroke-width="0.7" opacity="0.25"/><text fill="#d97706" font-size="11" font-weight="600" text-anchor="middle" x="559" y="176" opacity="0.25">T</text>
<rect fill="#fef3c7" height="24" rx="3" width="26" x="572" y="160" stroke="#d97706" stroke-width="0.7" opacity="0.25"/><text fill="#d97706" font-size="11" font-weight="600" text-anchor="middle" x="585" y="176" opacity="0.25">C</text>
<rect fill="#fef3c7" height="24" rx="3" width="26" x="598" y="160" stroke="#d97706" stroke-width="0.7" opacity="0.25"/><text fill="#d97706" font-size="11" font-weight="600" text-anchor="middle" x="611" y="176" opacity="0.25">T</text>
<line stroke="#dc2626" stroke-width="2" x1="544" x2="626" y1="172" y2="172" opacity="0.6"/>
<text fill="#d97706" font-size="8" font-style="italic" x="632" y="175">strip T[CT]{0,10}$</text>
<text fill="#2563eb" font-size="9" font-weight="700" x="14" y="222">Pass 1</text>
<rect fill="#6366f1" height="24" opacity="0.18" rx="4" stroke="#6366f1" stroke-width="1" width="160" x="70" y="206"/>
<text fill="#6366f1" font-size="9" font-weight="600" text-anchor="middle" x="150.0" y="221.0">transcript body</text>
<rect fill="#dbeafe" height="24" rx="3" width="26" x="234" y="206" stroke="#cbd5e1" stroke-width="0.7"/><text fill="#1e40af" font-size="11" font-weight="600" text-anchor="middle" x="247" y="222">G</text>
<rect fill="#ffedd5" height="24" rx="3" width="26" x="260" y="206" stroke="#cbd5e1" stroke-width="0.7"/><text fill="#9a3412" font-size="11" font-weight="600" text-anchor="middle" x="273" y="222">T</text>
<rect fill="#f3e8ff" height="24" rx="3" width="26" x="286" y="206" stroke="#cbd5e1" stroke-width="0.7"/><text fill="#6b21a8" font-size="11" font-weight="600" text-anchor="middle" x="299" y="222">C</text>
<rect fill="#dbeafe" height="24" rx="3" width="26" x="312" y="206" stroke="#2563eb" stroke-width="0.7" opacity="0.25"/><text fill="#2563eb" font-size="11" font-weight="600" text-anchor="middle" x="325" y="222" opacity="0.25">A</text>
<rect fill="#dbeafe" height="24" rx="3" width="26" x="338" y="206" stroke="#2563eb" stroke-width="0.7" opacity="0.25"/><text fill="#2563eb" font-size="11" font-weight="600" text-anchor="middle" x="351" y="222" opacity="0.25">A</text>
<rect fill="#dbeafe" height="24" rx="3" width="26" x="364" y="206" stroke="#2563eb" stroke-width="0.7" opacity="0.25"/><text fill="#2563eb" font-size="11" font-weight="600" text-anchor="middle" x="377" y="222" opacity="0.25">A</text>
<rect fill="#dbeafe" height="24" rx="3" width="26" x="390" y="206" stroke="#2563eb" stroke-width="0.7" opacity="0.25"/><text fill="#2563eb" font-size="11" font-weight="600" text-anchor="middle" x="403" y="222" opacity="0.25">A</text>
<rect fill="#dbeafe" height="24" rx="3" width="26" x="416" y="206" stroke="#2563eb" stroke-width="0.7" opacity="0.25"/><text fill="#2563eb" font-size="11" font-weight="600" text-anchor="middle" x="429" y="222" opacity="0.25">A</text>
<rect fill="#fef9c3" height="24" rx="3" width="26" x="442" y="206" stroke="#ca8a04" stroke-width="0.7"/><text fill="#ca8a04" font-size="11" font-weight="600" text-anchor="middle" x="455" y="222">T</text>
<rect fill="#dbeafe" height="24" rx="3" width="26" x="468" y="206" stroke="#2563eb" stroke-width="0.7"/><text fill="#2563eb" font-size="11" font-weight="600" text-anchor="middle" x="481" y="222">A</text>
<rect fill="#dbeafe" height="24" rx="3" width="26" x="494" y="206" stroke="#2563eb" stroke-width="0.7"/><text fill="#2563eb" font-size="11" font-weight="600" text-anchor="middle" x="507" y="222">A</text>
<rect fill="#dbeafe" height="24" rx="3" width="26" x="520" y="206" stroke="#2563eb" stroke-width="0.7"/><text fill="#2563eb" font-size="11" font-weight="600" text-anchor="middle" x="533" y="222">A</text>
<rect fill="#fef3c7" height="24" rx="3" width="26" x="546" y="206" stroke="#d97706" stroke-width="0.7" opacity="0.25"/><text fill="#d97706" font-size="11" font-weight="600" text-anchor="middle" x="559" y="222" opacity="0.25">T</text>
<rect fill="#fef3c7" height="24" rx="3" width="26" x="572" y="206" stroke="#d97706" stroke-width="0.7" opacity="0.25"/><text fill="#d97706" font-size="11" font-weight="600" text-anchor="middle" x="585" y="222" opacity="0.25">C</text>
<rect fill="#fef3c7" height="24" rx="3" width="26" x="598" y="206" stroke="#d97706" stroke-width="0.7" opacity="0.25"/><text fill="#d97706" font-size="11" font-weight="600" text-anchor="middle" x="611" y="222" opacity="0.25">T</text>
<line stroke="#dc2626" stroke-width="2" x1="544" x2="626" y1="218" y2="218" opacity="0.4"/>
<line stroke="#dc2626" stroke-width="2" x1="310" x2="444" y1="218" y2="218" opacity="0.6"/>
<line stroke="#2563eb" stroke-width="1.5" x1="542" x2="316" y1="200" y2="200"/>
<polygon fill="#2563eb" points="316,200 323,196.5 323,203.5"/>
<text fill="#2563eb" font-size="9" text-anchor="middle" x="429.0" y="191">scan ←</text>
<text fill="#ca8a04" font-size="8" font-style="italic" x="554" y="221">stops at T — boundary ambiguous</text>
<text fill="#ca8a04" font-size="9" font-weight="700" x="14" y="268">Pass 2</text>
<rect fill="#6366f1" height="24" opacity="0.18" rx="4" stroke="#6366f1" stroke-width="1" width="160" x="70" y="252"/>
<text fill="#6366f1" font-size="9" font-weight="600" text-anchor="middle" x="150.0" y="267.0">transcript body</text>
<rect fill="#dbeafe" height="24" rx="3" width="26" x="234" y="252" stroke="#cbd5e1" stroke-width="0.7"/><text fill="#1e40af" font-size="11" font-weight="600" text-anchor="middle" x="247" y="268">G</text>
<rect fill="#ffedd5" height="24" rx="3" width="26" x="260" y="252" stroke="#cbd5e1" stroke-width="0.7"/><text fill="#9a3412" font-size="11" font-weight="600" text-anchor="middle" x="273" y="268">T</text>
<rect fill="#f3e8ff" height="24" rx="3" width="26" x="286" y="252" stroke="#cbd5e1" stroke-width="0.7"/><text fill="#6b21a8" font-size="11" font-weight="600" text-anchor="middle" x="299" y="268">C</text>
<rect fill="#dbeafe" height="24" rx="3" width="26" x="312" y="252" stroke="#2563eb" stroke-width="0.7" opacity="0.25"/><text fill="#2563eb" font-size="11" font-weight="600" text-anchor="middle" x="325" y="268" opacity="0.25">A</text>
<rect fill="#dbeafe" height="24" rx="3" width="26" x="338" y="252" stroke="#2563eb" stroke-width="0.7" opacity="0.25"/><text fill="#2563eb" font-size="11" font-weight="600" text-anchor="middle" x="351" y="268" opacity="0.25">A</text>
<rect fill="#dbeafe" height="24" rx="3" width="26" x="364" y="252" stroke="#2563eb" stroke-width="0.7" opacity="0.25"/><text fill="#2563eb" font-size="11" font-weight="600" text-anchor="middle" x="377" y="268" opacity="0.25">A</text>
<rect fill="#dbeafe" height="24" rx="3" width="26" x="390" y="252" stroke="#2563eb" stroke-width="0.7" opacity="0.25"/><text fill="#2563eb" font-size="11" font-weight="600" text-anchor="middle" x="403" y="268" opacity="0.25">A</text>
<rect fill="#dbeafe" height="24" rx="3" width="26" x="416" y="252" stroke="#2563eb" stroke-width="0.7" opacity="0.25"/><text fill="#2563eb" font-size="11" font-weight="600" text-anchor="middle" x="429" y="268" opacity="0.25">A</text>
<rect fill="#fef9c3" height="24" rx="3" width="26" x="442" y="252" stroke="#ca8a04" stroke-width="0.7" opacity="0.25"/><text fill="#ca8a04" font-size="11" font-weight="600" text-anchor="middle" x="455" y="268" opacity="0.25">T</text>
<rect fill="#dbeafe" height="24" rx="3" width="26" x="468" y="252" stroke="#2563eb" stroke-width="0.7" opacity="0.25"/><text fill="#2563eb" font-size="11" font-weight="600" text-anchor="middle" x="481" y="268" opacity="0.25">A</text>
<rect fill="#dbeafe" height="24" rx="3" width="26" x="494" y="252" stroke="#2563eb" stroke-width="0.7" opacity="0.25"/><text fill="#2563eb" font-size="11" font-weight="600" text-anchor="middle" x="507" y="268" opacity="0.25">A</text>
<rect fill="#dbeafe" height="24" rx="3" width="26" x="520" y="252" stroke="#2563eb" stroke-width="0.7" opacity="0.25"/><text fill="#2563eb" font-size="11" font-weight="600" text-anchor="middle" x="533" y="268" opacity="0.25">A</text>
<rect fill="#fef3c7" height="24" rx="3" width="26" x="546" y="252" stroke="#d97706" stroke-width="0.7" opacity="0.25"/><text fill="#d97706" font-size="11" font-weight="600" text-anchor="middle" x="559" y="268" opacity="0.25">T</text>
<rect fill="#fef3c7" height="24" rx="3" width="26" x="572" y="252" stroke="#d97706" stroke-width="0.7" opacity="0.25"/><text fill="#d97706" font-size="11" font-weight="600" text-anchor="middle" x="585" y="268" opacity="0.25">C</text>
<rect fill="#fef3c7" height="24" rx="3" width="26" x="598" y="252" stroke="#d97706" stroke-width="0.7" opacity="0.25"/><text fill="#d97706" font-size="11" font-weight="600" text-anchor="middle" x="611" y="268" opacity="0.25">T</text>
<line stroke="#dc2626" stroke-width="2" x1="310" x2="626" y1="264" y2="264" opacity="0.4"/>
<line stroke="#ca8a04" stroke-width="1.5" x1="542" x2="446" y1="246" y2="246"/>
<polygon fill="#ca8a04" points="446,246 453,242.5 453,249.5"/>
<text fill="#ca8a04" font-size="9" text-anchor="middle" x="494.0" y="237">peel ←</text>
<text fill="#ca8a04" font-size="8" font-style="italic" x="554" y="267">A-richness drops → trim boundary found</text>
<line stroke="#e2e8f0" stroke-width="1" x1="50" x2="710" y1="294" y2="294"/>
<text fill="#059669" font-size="10" font-weight="bold" letter-spacing="0.8" x="60" y="310">TRIMMED READ (for re-alignment)</text>
<text fill="#64748b" font-size="10" x="14" y="346">Output</text>
<rect fill="#6366f1" height="24" opacity="0.18" rx="4" stroke="#6366f1" stroke-width="1" width="160" x="70" y="330"/>
<text fill="#6366f1" font-size="9" font-weight="600" text-anchor="middle" x="150.0" y="345.0">transcript body</text>
<rect fill="#dbeafe" height="24" rx="3" width="26" x="234" y="330" stroke="#cbd5e1" stroke-width="0.7"/><text fill="#1e40af" font-size="11" font-weight="600" text-anchor="middle" x="247" y="346">G</text>
<rect fill="#ffedd5" height="24" rx="3" width="26" x="260" y="330" stroke="#cbd5e1" stroke-width="0.7"/><text fill="#9a3412" font-size="11" font-weight="600" text-anchor="middle" x="273" y="346">T</text>
<rect fill="#f3e8ff" height="24" rx="3" width="26" x="286" y="330" stroke="#cbd5e1" stroke-width="0.7"/><text fill="#6b21a8" font-size="11" font-weight="600" text-anchor="middle" x="299" y="346">C</text>
<text fill="#059669" font-size="11" font-weight="700" x="322" y="346">✓ clean read</text>
<text fill="#94a3b8" font-size="8" font-style="italic" text-anchor="middle" x="380" y="372">tail length, adapter sequence, and pass number saved to metadata parquet</text>
</g>
</svg>