<?xml version="1.0" encoding="utf-8" ?>
<svg xmlns="http://www.w3.org/2000/svg" width="760" height="390" viewBox="0 0 760 390">
<rect fill="#ffffff" width="760" height="390"/>
<g font-family="Helvetica Neue, Helvetica, Arial, sans-serif">
<text fill="#1e293b" font-size="14" font-weight="bold" text-anchor="middle" x="380" y="22">DRS Poly(A) Pre-Trimming</text>
<text fill="#475569" font-size="10" font-weight="bold" letter-spacing="0.8" x="60" y="40">RAW DRS READ (RNA 5′ → 3′)</text>
<text fill="#64748b" font-size="10" x="14" y="76">Read</text>
<rect fill="#6366f1" height="24" opacity="0.18" rx="4" stroke="#6366f1" stroke-width="1" width="160" x="70" y="60"/>
<text fill="#6366f1" font-size="9" font-weight="600" text-anchor="middle" x="150.0" y="75.0">transcript body</text>
<rect fill="#f3e8ff" height="24" rx="3" width="26" x="234" y="60" stroke="#cbd5e1" stroke-width="0.7"/><text fill="#6b21a8" font-size="11" font-weight="600" text-anchor="middle" x="247" y="76">C</text>
<rect fill="#ffedd5" height="24" rx="3" width="26" x="260" y="60" stroke="#cbd5e1" stroke-width="0.7"/><text fill="#9a3412" font-size="11" font-weight="600" text-anchor="middle" x="273" y="76">T</text>
<rect fill="#dbeafe" height="24" rx="3" width="26" x="286" y="60" stroke="#cbd5e1" stroke-width="0.7"/><text fill="#1e40af" font-size="11" font-weight="600" text-anchor="middle" x="299" y="76">G</text>
<rect fill="#dbeafe" height="24" rx="3" width="26" x="312" y="60" stroke="#2563eb" stroke-width="0.7"/><text fill="#2563eb" font-size="11" font-weight="600" text-anchor="middle" x="325" y="76">A</text>
<rect fill="#dbeafe" height="24" rx="3" width="26" x="338" y="60" stroke="#2563eb" stroke-width="0.7"/><text fill="#2563eb" font-size="11" font-weight="600" text-anchor="middle" x="351" y="76">A</text>
<rect fill="#dbeafe" height="24" rx="3" width="26" x="364" y="60" stroke="#2563eb" stroke-width="0.7"/><text fill="#2563eb" font-size="11" font-weight="600" text-anchor="middle" x="377" y="76">A</text>
<rect fill="#dbeafe" height="24" rx="3" width="26" x="390" y="60" stroke="#2563eb" stroke-width="0.7"/><text fill="#2563eb" font-size="11" font-weight="600" text-anchor="middle" x="403" y="76">A</text>
<rect fill="#dbeafe" height="24" rx="3" width="26" x="416" y="60" stroke="#2563eb" stroke-width="0.7"/><text fill="#2563eb" font-size="11" font-weight="600" text-anchor="middle" x="429" y="76">A</text>
<rect fill="#fef9c3" height="24" rx="3" width="26" x="442" y="60" stroke="#ca8a04" stroke-width="1.2"/><text fill="#ca8a04" font-size="11" font-weight="700" text-anchor="middle" x="455" y="76">T</text>
<rect fill="#dbeafe" height="24" rx="3" width="26" x="468" y="60" stroke="#2563eb" stroke-width="0.7"/><text fill="#2563eb" font-size="11" font-weight="600" text-anchor="middle" x="481" y="76">A</text>
<rect fill="#dbeafe" height="24" rx="3" width="26" x="494" y="60" stroke="#2563eb" stroke-width="0.7"/><text fill="#2563eb" font-size="11" font-weight="600" text-anchor="middle" x="507" y="76">A</text>
<rect fill="#dbeafe" height="24" rx="3" width="26" x="520" y="60" stroke="#2563eb" stroke-width="0.7"/><text fill="#2563eb" font-size="11" font-weight="600" text-anchor="middle" x="533" y="76">A</text>
<rect fill="#dbeafe" height="24" rx="3" width="26" x="546" y="60" stroke="#2563eb" stroke-width="0.7"/><text fill="#2563eb" font-size="11" font-weight="600" text-anchor="middle" x="559" y="76">A</text>
<rect fill="#fef3c7" height="24" rx="3" width="26" x="572" y="60" stroke="#d97706" stroke-width="0.7"/><text fill="#d97706" font-size="11" font-weight="600" text-anchor="middle" x="585" y="76">T</text>
<rect fill="#fef3c7" height="24" rx="3" width="26" x="598" y="60" stroke="#d97706" stroke-width="0.7"/><text fill="#d97706" font-size="11" font-weight="600" text-anchor="middle" x="611" y="76">C</text>
<rect fill="#fef3c7" height="24" rx="3" width="26" x="624" y="60" stroke="#d97706" stroke-width="0.7"/><text fill="#d97706" font-size="11" font-weight="600" text-anchor="middle" x="637" y="76">T</text>
<path d="M312,85 L312,90 L572,90 L572,85" fill="none" stroke="#2563eb" stroke-width="1" opacity="0.6"/>
<text fill="#2563eb" font-size="8.5" text-anchor="middle" x="442.0" y="102">poly(A) tail (includes genomic A-tract)</text>
<path d="M572,85 L572,90 L650,90 L650,85" fill="none" stroke="#d97706" stroke-width="1" opacity="0.6"/>
<text fill="#d97706" font-size="8.5" text-anchor="middle" x="611.0" y="102">adapter stub</text>
<text fill="#ca8a04" font-size="7" font-weight="600" text-anchor="middle" x="455" y="56">seq error or genomic?</text>
<text fill="#94a3b8" font-size="8" x="52" y="75">5′</text>
<text fill="#94a3b8" font-size="8" x="656" y="75">3′</text>
<line stroke="#e2e8f0" stroke-width="1" x1="50" x2="710" y1="124" y2="124"/>
<text fill="#475569" font-size="10" font-weight="bold" letter-spacing="0.8" x="60" y="140">TWO-PASS TRIMMING</text>
<text fill="#d97706" font-size="9" font-weight="700" x="14" y="178">Pass 0</text>
<rect fill="#6366f1" height="24" opacity="0.18" rx="4" stroke="#6366f1" stroke-width="1" width="160" x="70" y="162"/>
<text fill="#6366f1" font-size="9" font-weight="600" text-anchor="middle" x="150.0" y="177.0">transcript body</text>
<rect fill="#f3e8ff" height="24" rx="3" width="26" x="234" y="162" stroke="#cbd5e1" stroke-width="0.7"/><text fill="#6b21a8" font-size="11" font-weight="600" text-anchor="middle" x="247" y="178">C</text>
<rect fill="#ffedd5" height="24" rx="3" width="26" x="260" y="162" stroke="#cbd5e1" stroke-width="0.7"/><text fill="#9a3412" font-size="11" font-weight="600" text-anchor="middle" x="273" y="178">T</text>
<rect fill="#dbeafe" height="24" rx="3" width="26" x="286" y="162" stroke="#cbd5e1" stroke-width="0.7"/><text fill="#1e40af" font-size="11" font-weight="600" text-anchor="middle" x="299" y="178">G</text>
<rect fill="#dbeafe" height="24" rx="3" width="26" x="312" y="162" stroke="#2563eb" stroke-width="0.7"/><text fill="#2563eb" font-size="11" font-weight="600" text-anchor="middle" x="325" y="178">A</text>
<rect fill="#dbeafe" height="24" rx="3" width="26" x="338" y="162" stroke="#2563eb" stroke-width="0.7"/><text fill="#2563eb" font-size="11" font-weight="600" text-anchor="middle" x="351" y="178">A</text>
<rect fill="#dbeafe" height="24" rx="3" width="26" x="364" y="162" stroke="#2563eb" stroke-width="0.7"/><text fill="#2563eb" font-size="11" font-weight="600" text-anchor="middle" x="377" y="178">A</text>
<rect fill="#dbeafe" height="24" rx="3" width="26" x="390" y="162" stroke="#2563eb" stroke-width="0.7"/><text fill="#2563eb" font-size="11" font-weight="600" text-anchor="middle" x="403" y="178">A</text>
<rect fill="#dbeafe" height="24" rx="3" width="26" x="416" y="162" stroke="#2563eb" stroke-width="0.7"/><text fill="#2563eb" font-size="11" font-weight="600" text-anchor="middle" x="429" y="178">A</text>
<rect fill="#fef9c3" height="24" rx="3" width="26" x="442" y="162" stroke="#ca8a04" stroke-width="1.2"/><text fill="#ca8a04" font-size="11" font-weight="700" text-anchor="middle" x="455" y="178">T</text>
<rect fill="#dbeafe" height="24" rx="3" width="26" x="468" y="162" stroke="#2563eb" stroke-width="0.7"/><text fill="#2563eb" font-size="11" font-weight="600" text-anchor="middle" x="481" y="178">A</text>
<rect fill="#dbeafe" height="24" rx="3" width="26" x="494" y="162" stroke="#2563eb" stroke-width="0.7"/><text fill="#2563eb" font-size="11" font-weight="600" text-anchor="middle" x="507" y="178">A</text>
<rect fill="#dbeafe" height="24" rx="3" width="26" x="520" y="162" stroke="#2563eb" stroke-width="0.7"/><text fill="#2563eb" font-size="11" font-weight="600" text-anchor="middle" x="533" y="178">A</text>
<rect fill="#dbeafe" height="24" rx="3" width="26" x="546" y="162" stroke="#2563eb" stroke-width="0.7"/><text fill="#2563eb" font-size="11" font-weight="600" text-anchor="middle" x="559" y="178">A</text>
<rect fill="#fef3c7" height="24" rx="3" width="26" x="572" y="162" stroke="#d97706" stroke-width="0.7" opacity="0.25"/><text fill="#d97706" font-size="11" font-weight="600" text-anchor="middle" x="585" y="178" opacity="0.25">T</text>
<rect fill="#fef3c7" height="24" rx="3" width="26" x="598" y="162" stroke="#d97706" stroke-width="0.7" opacity="0.25"/><text fill="#d97706" font-size="11" font-weight="600" text-anchor="middle" x="611" y="178" opacity="0.25">C</text>
<rect fill="#fef3c7" height="24" rx="3" width="26" x="624" y="162" stroke="#d97706" stroke-width="0.7" opacity="0.25"/><text fill="#d97706" font-size="11" font-weight="600" text-anchor="middle" x="637" y="178" opacity="0.25">T</text>
<line stroke="#dc2626" stroke-width="2" x1="570" x2="652" y1="174" y2="174" opacity="0.6"/>
<text fill="#d97706" font-size="8" font-style="italic" x="658" y="177">strip T[CT]{0,10}$</text>
<text fill="#2563eb" font-size="9" font-weight="700" x="14" y="224">Pass 1</text>
<rect fill="#6366f1" height="24" opacity="0.18" rx="4" stroke="#6366f1" stroke-width="1" width="160" x="70" y="208"/>
<text fill="#6366f1" font-size="9" font-weight="600" text-anchor="middle" x="150.0" y="223.0">transcript body</text>
<rect fill="#f3e8ff" height="24" rx="3" width="26" x="234" y="208" stroke="#cbd5e1" stroke-width="0.7"/><text fill="#6b21a8" font-size="11" font-weight="600" text-anchor="middle" x="247" y="224">C</text>
<rect fill="#ffedd5" height="24" rx="3" width="26" x="260" y="208" stroke="#cbd5e1" stroke-width="0.7"/><text fill="#9a3412" font-size="11" font-weight="600" text-anchor="middle" x="273" y="224">T</text>
<rect fill="#dbeafe" height="24" rx="3" width="26" x="286" y="208" stroke="#cbd5e1" stroke-width="0.7"/><text fill="#1e40af" font-size="11" font-weight="600" text-anchor="middle" x="299" y="224">G</text>
<rect fill="#dbeafe" height="24" rx="3" width="26" x="312" y="208" stroke="#2563eb" stroke-width="0.7"/><text fill="#2563eb" font-size="11" font-weight="600" text-anchor="middle" x="325" y="224">A</text>
<rect fill="#dbeafe" height="24" rx="3" width="26" x="338" y="208" stroke="#2563eb" stroke-width="0.7"/><text fill="#2563eb" font-size="11" font-weight="600" text-anchor="middle" x="351" y="224">A</text>
<rect fill="#dbeafe" height="24" rx="3" width="26" x="364" y="208" stroke="#2563eb" stroke-width="0.7"/><text fill="#2563eb" font-size="11" font-weight="600" text-anchor="middle" x="377" y="224">A</text>
<rect fill="#dbeafe" height="24" rx="3" width="26" x="390" y="208" stroke="#2563eb" stroke-width="0.7"/><text fill="#2563eb" font-size="11" font-weight="600" text-anchor="middle" x="403" y="224">A</text>
<rect fill="#dbeafe" height="24" rx="3" width="26" x="416" y="208" stroke="#2563eb" stroke-width="0.7"/><text fill="#2563eb" font-size="11" font-weight="600" text-anchor="middle" x="429" y="224">A</text>
<rect fill="#fef9c3" height="24" rx="3" width="26" x="442" y="208" stroke="#ca8a04" stroke-width="1.2"/><text fill="#ca8a04" font-size="11" font-weight="700" text-anchor="middle" x="455" y="224">T</text>
<rect fill="#dbeafe" height="24" rx="3" width="26" x="468" y="208" stroke="#2563eb" stroke-width="0.7" opacity="0.25"/><text fill="#2563eb" font-size="11" font-weight="600" text-anchor="middle" x="481" y="224" opacity="0.25">A</text>
<rect fill="#dbeafe" height="24" rx="3" width="26" x="494" y="208" stroke="#2563eb" stroke-width="0.7" opacity="0.25"/><text fill="#2563eb" font-size="11" font-weight="600" text-anchor="middle" x="507" y="224" opacity="0.25">A</text>
<rect fill="#dbeafe" height="24" rx="3" width="26" x="520" y="208" stroke="#2563eb" stroke-width="0.7" opacity="0.25"/><text fill="#2563eb" font-size="11" font-weight="600" text-anchor="middle" x="533" y="224" opacity="0.25">A</text>
<rect fill="#dbeafe" height="24" rx="3" width="26" x="546" y="208" stroke="#2563eb" stroke-width="0.7" opacity="0.25"/><text fill="#2563eb" font-size="11" font-weight="600" text-anchor="middle" x="559" y="224" opacity="0.25">A</text>
<rect fill="#fef3c7" height="24" rx="3" width="26" x="572" y="208" stroke="#d97706" stroke-width="0.7" opacity="0.25"/><text fill="#d97706" font-size="11" font-weight="600" text-anchor="middle" x="585" y="224" opacity="0.25">T</text>
<rect fill="#fef3c7" height="24" rx="3" width="26" x="598" y="208" stroke="#d97706" stroke-width="0.7" opacity="0.25"/><text fill="#d97706" font-size="11" font-weight="600" text-anchor="middle" x="611" y="224" opacity="0.25">C</text>
<rect fill="#fef3c7" height="24" rx="3" width="26" x="624" y="208" stroke="#d97706" stroke-width="0.7" opacity="0.25"/><text fill="#d97706" font-size="11" font-weight="600" text-anchor="middle" x="637" y="224" opacity="0.25">T</text>
<line stroke="#dc2626" stroke-width="2" x1="570" x2="652" y1="220" y2="220" opacity="0.3"/>
<line stroke="#dc2626" stroke-width="2" x1="466" x2="574" y1="220" y2="220" opacity="0.6"/>
<line stroke="#2563eb" stroke-width="1.5" x1="568" x2="472" y1="202" y2="202"/>
<polygon fill="#2563eb" points="472,202 479,198.5 479,205.5"/>
<text fill="#2563eb" font-size="9" text-anchor="middle" x="520.0" y="193">scan ← (pure A only)</text>
<line stroke="#ca8a04" stroke-width="2" x1="470" x2="470" y1="206" y2="234"/>
<text fill="#ca8a04" font-size="8" font-weight="600" x="580" y="223">stops at T — left for walk-back</text>
<line stroke="#e2e8f0" stroke-width="1" x1="50" x2="710" y1="250" y2="250"/>
<text fill="#059669" font-size="10" font-weight="bold" letter-spacing="0.8" x="60" y="266">TRIMMED READ (for re-alignment)</text>
<text fill="#64748b" font-size="10" x="14" y="302">Output</text>
<rect fill="#6366f1" height="24" opacity="0.18" rx="4" stroke="#6366f1" stroke-width="1" width="160" x="70" y="286"/>
<text fill="#6366f1" font-size="9" font-weight="600" text-anchor="middle" x="150.0" y="301.0">transcript body</text>
<rect fill="#f3e8ff" height="24" rx="3" width="26" x="234" y="286" stroke="#cbd5e1" stroke-width="0.7"/><text fill="#6b21a8" font-size="11" font-weight="600" text-anchor="middle" x="247" y="302">C</text>
<rect fill="#ffedd5" height="24" rx="3" width="26" x="260" y="286" stroke="#cbd5e1" stroke-width="0.7"/><text fill="#9a3412" font-size="11" font-weight="600" text-anchor="middle" x="273" y="302">T</text>
<rect fill="#dbeafe" height="24" rx="3" width="26" x="286" y="286" stroke="#cbd5e1" stroke-width="0.7"/><text fill="#1e40af" font-size="11" font-weight="600" text-anchor="middle" x="299" y="302">G</text>
<rect fill="#dbeafe" height="24" rx="3" width="26" x="312" y="286" stroke="#2563eb" stroke-width="0.7"/><text fill="#2563eb" font-size="11" font-weight="600" text-anchor="middle" x="325" y="302">A</text>
<rect fill="#dbeafe" height="24" rx="3" width="26" x="338" y="286" stroke="#2563eb" stroke-width="0.7"/><text fill="#2563eb" font-size="11" font-weight="600" text-anchor="middle" x="351" y="302">A</text>
<rect fill="#dbeafe" height="24" rx="3" width="26" x="364" y="286" stroke="#2563eb" stroke-width="0.7"/><text fill="#2563eb" font-size="11" font-weight="600" text-anchor="middle" x="377" y="302">A</text>
<rect fill="#dbeafe" height="24" rx="3" width="26" x="390" y="286" stroke="#2563eb" stroke-width="0.7"/><text fill="#2563eb" font-size="11" font-weight="600" text-anchor="middle" x="403" y="302">A</text>
<rect fill="#dbeafe" height="24" rx="3" width="26" x="416" y="286" stroke="#2563eb" stroke-width="0.7"/><text fill="#2563eb" font-size="11" font-weight="600" text-anchor="middle" x="429" y="302">A</text>
<rect fill="#fef9c3" height="24" rx="3" width="26" x="442" y="286" stroke="#ca8a04" stroke-width="1.2"/><text fill="#ca8a04" font-size="11" font-weight="700" text-anchor="middle" x="455" y="302">T</text>
<text fill="#059669" font-size="10" font-weight="700" x="478" y="298">✓ ready for alignment</text>
<text fill="#94a3b8" font-size="8" font-style="italic" x="478" y="310">ambiguous T resolved by 3′ walk-back after alignment</text>
<text fill="#94a3b8" font-size="8" font-style="italic" text-anchor="middle" x="380" y="332">tail length, adapter sequence, and pass number saved to metadata parquet</text>
</g>
</svg>