<?xml version="1.0" encoding="utf-8" ?>
<svg xmlns="http://www.w3.org/2000/svg" width="760" height="350" viewBox="0 0 760 350">
<rect fill="#ffffff" width="760" height="350"/>
<g font-family="Helvetica Neue, Helvetica, Arial, sans-serif">
<text fill="#1e293b" font-size="14" font-weight="bold" text-anchor="middle" x="380" y="22">Soft-Clip Rescue at Homopolymer Boundaries</text>
<text fill="#dc2626" font-size="10" font-weight="bold" letter-spacing="0.8" x="60" y="42">BEFORE CORRECTION</text>
<text fill="#64748b" font-size="10" x="14" y="78">Reference</text>
<rect fill="#ffedd5" height="24" rx="3" width="26" x="70" y="62" stroke="#d97706" stroke-width="1.2"/><text fill="#9a3412" font-size="11" font-weight="600" text-anchor="middle" x="83" y="78">T</text>
<rect fill="#ffedd5" height="24" rx="3" width="26" x="96" y="62" stroke="#d97706" stroke-width="1.2"/><text fill="#9a3412" font-size="11" font-weight="600" text-anchor="middle" x="109" y="78">T</text>
<rect fill="#ffedd5" height="24" rx="3" width="26" x="122" y="62" stroke="#d97706" stroke-width="1.2"/><text fill="#9a3412" font-size="11" font-weight="600" text-anchor="middle" x="135" y="78">T</text>
<rect fill="#ffedd5" height="24" rx="3" width="26" x="148" y="62" stroke="#d97706" stroke-width="1.2"/><text fill="#9a3412" font-size="11" font-weight="600" text-anchor="middle" x="161" y="78">T</text>
<rect fill="#ffedd5" height="24" rx="3" width="26" x="174" y="62" stroke="#d97706" stroke-width="1.2"/><text fill="#9a3412" font-size="11" font-weight="600" text-anchor="middle" x="187" y="78">T</text>
<rect fill="#ffedd5" height="24" rx="3" width="26" x="200" y="62" stroke="#d97706" stroke-width="1.2"/><text fill="#9a3412" font-size="11" font-weight="600" text-anchor="middle" x="213" y="78">T</text>
<rect fill="#ffedd5" height="24" rx="3" width="26" x="226" y="62" stroke="#d97706" stroke-width="1.2"/><text fill="#9a3412" font-size="11" font-weight="600" text-anchor="middle" x="239" y="78">T</text>
<rect fill="#ffedd5" height="24" rx="3" width="26" x="252" y="62" stroke="#d97706" stroke-width="1.2"/><text fill="#9a3412" font-size="11" font-weight="600" text-anchor="middle" x="265" y="78">T</text>
<rect fill="#ffedd5" height="24" rx="3" width="26" x="278" y="62" stroke="#d97706" stroke-width="1.2"/><text fill="#9a3412" font-size="11" font-weight="600" text-anchor="middle" x="291" y="78">T</text>
<rect fill="#ffedd5" height="24" rx="3" width="26" x="304" y="62" stroke="#d97706" stroke-width="1.2"/><text fill="#9a3412" font-size="11" font-weight="600" text-anchor="middle" x="317" y="78">T</text>
<rect fill="#ffedd5" height="24" rx="3" width="26" x="330" y="62" stroke="#d97706" stroke-width="1.2"/><text fill="#9a3412" font-size="11" font-weight="600" text-anchor="middle" x="343" y="78">T</text>
<rect fill="#f3e8ff" height="24" rx="3" width="26" x="356" y="62" stroke="#cbd5e1" stroke-width="0.7"/><text fill="#6b21a8" font-size="11" font-weight="600" text-anchor="middle" x="369" y="78">C</text>
<rect fill="#dbeafe" height="24" rx="3" width="26" x="382" y="62" stroke="#cbd5e1" stroke-width="0.7"/><text fill="#1e40af" font-size="11" font-weight="600" text-anchor="middle" x="395" y="78">G</text>
<rect fill="#dcfce7" height="24" rx="3" width="26" x="408" y="62" stroke="#cbd5e1" stroke-width="0.7"/><text fill="#166534" font-size="11" font-weight="600" text-anchor="middle" x="421" y="78">A</text>
<path d="M70,61 L70,56 L356,56 L356,61" fill="none" stroke="#d97706" stroke-width="1" opacity="0.6"/>
<text fill="#d97706" font-size="8.5" text-anchor="middle" x="213.0" y="52">T-tract (11 bp)</text>
<text fill="#64748b" font-size="10" x="14" y="126">Read</text>
<rect fill="#ffedd5" height="24" rx="3" width="26" x="70" y="110" stroke="#cbd5e1" stroke-width="0.7"/><text fill="#9a3412" font-size="11" font-weight="600" text-anchor="middle" x="83" y="126">T</text>
<rect fill="#ffedd5" height="24" rx="3" width="26" x="96" y="110" stroke="#cbd5e1" stroke-width="0.7"/><text fill="#9a3412" font-size="11" font-weight="600" text-anchor="middle" x="109" y="126">T</text>
<rect fill="#ffedd5" height="24" rx="3" width="26" x="122" y="110" stroke="#cbd5e1" stroke-width="0.7"/><text fill="#9a3412" font-size="11" font-weight="600" text-anchor="middle" x="135" y="126">T</text>
<rect fill="#ffedd5" height="24" rx="3" width="26" x="148" y="110" stroke="#cbd5e1" stroke-width="0.7"/><text fill="#9a3412" font-size="11" font-weight="600" text-anchor="middle" x="161" y="126">T</text>
<rect fill="#ffedd5" height="24" rx="3" width="26" x="174" y="110" stroke="#cbd5e1" stroke-width="0.7"/><text fill="#9a3412" font-size="11" font-weight="600" text-anchor="middle" x="187" y="126">T</text>
<rect fill="#ffedd5" height="24" rx="3" width="26" x="200" y="110" stroke="#cbd5e1" stroke-width="0.7"/><text fill="#9a3412" font-size="11" font-weight="600" text-anchor="middle" x="213" y="126">T</text>
<rect fill="#ffedd5" height="24" rx="3" width="26" x="226" y="110" stroke="#cbd5e1" stroke-width="0.7"/><text fill="#9a3412" font-size="11" font-weight="600" text-anchor="middle" x="239" y="126">T</text>
<rect fill="#ffedd5" height="24" rx="3" width="26" x="252" y="110" stroke="#cbd5e1" stroke-width="0.7"/><text fill="#9a3412" font-size="11" font-weight="600" text-anchor="middle" x="265" y="126">T</text>
<rect fill="#fee2e2" height="24" rx="3" width="26" x="278" y="110" stroke="#dc2626" stroke-width="1.2"/><text fill="#6b21a8" font-size="11" font-weight="600" text-anchor="middle" x="291" y="126">C</text>
<rect fill="#fee2e2" height="24" rx="3" width="26" x="304" y="110" stroke="#dc2626" stroke-width="1.2"/><text fill="#166534" font-size="11" font-weight="600" text-anchor="middle" x="317" y="126">A</text>
<rect fill="#fee2e2" height="24" rx="3" width="26" x="330" y="110" stroke="#dc2626" stroke-width="1.2"/><text fill="#166534" font-size="11" font-weight="600" text-anchor="middle" x="343" y="126">A</text>
<rect fill="#fee2e2" height="24" rx="3" width="26" x="356" y="110" stroke="#dc2626" stroke-width="1.2"/><text fill="#166534" font-size="11" font-weight="600" text-anchor="middle" x="369" y="126">A</text>
<rect fill="#fee2e2" height="24" rx="3" width="26" x="382" y="110" stroke="#dc2626" stroke-width="1.2"/><text fill="#166534" font-size="11" font-weight="600" text-anchor="middle" x="395" y="126">A</text>
<rect fill="#fee2e2" height="24" rx="3" width="26" x="408" y="110" stroke="#dc2626" stroke-width="1.2"/><text fill="#166534" font-size="11" font-weight="600" text-anchor="middle" x="421" y="126">A</text>
<rect fill="#fee2e2" height="24" rx="3" width="26" x="434" y="110" stroke="#dc2626" stroke-width="1.2"/><text fill="#166534" font-size="11" font-weight="600" text-anchor="middle" x="447" y="126">A</text>
<rect fill="#fee2e2" height="24" rx="3" width="26" x="460" y="110" stroke="#dc2626" stroke-width="1.2"/><text fill="#166534" font-size="11" font-weight="600" text-anchor="middle" x="473" y="126">A</text>
<rect fill="#fee2e2" height="24" rx="3" width="26" x="486" y="110" stroke="#dc2626" stroke-width="1.2"/><text fill="#166534" font-size="11" font-weight="600" text-anchor="middle" x="499" y="126">A</text>
<rect fill="#fee2e2" height="24" rx="3" width="26" x="512" y="110" stroke="#dc2626" stroke-width="1.2"/><text fill="#166534" font-size="11" font-weight="600" text-anchor="middle" x="525" y="126">A</text>
<line stroke="#dc2626" stroke-dasharray="4,3" stroke-width="1.5" x1="278" x2="278" y1="104" y2="138"/>
<text fill="#dc2626" font-size="9" x="282" y="101">apparent 3′ end (wrong)</text>
<text fill="#d97706" font-size="8.5" text-anchor="middle" x="174" y="148">8 T’s called (should be 11)</text>
<line stroke="#e2e8f0" stroke-width="1" x1="50" x2="710" y1="160" y2="160"/>
<text fill="#059669" font-size="10" font-weight="bold" letter-spacing="0.8" x="60" y="178">AFTER CORRECTION</text>
<text fill="#64748b" font-size="10" x="14" y="214">Reference</text>
<rect fill="#ffedd5" height="24" rx="3" width="26" x="70" y="198" stroke="#d97706" stroke-width="1.2"/><text fill="#9a3412" font-size="11" font-weight="600" text-anchor="middle" x="83" y="214">T</text>
<rect fill="#ffedd5" height="24" rx="3" width="26" x="96" y="198" stroke="#d97706" stroke-width="1.2"/><text fill="#9a3412" font-size="11" font-weight="600" text-anchor="middle" x="109" y="214">T</text>
<rect fill="#ffedd5" height="24" rx="3" width="26" x="122" y="198" stroke="#d97706" stroke-width="1.2"/><text fill="#9a3412" font-size="11" font-weight="600" text-anchor="middle" x="135" y="214">T</text>
<rect fill="#ffedd5" height="24" rx="3" width="26" x="148" y="198" stroke="#d97706" stroke-width="1.2"/><text fill="#9a3412" font-size="11" font-weight="600" text-anchor="middle" x="161" y="214">T</text>
<rect fill="#ffedd5" height="24" rx="3" width="26" x="174" y="198" stroke="#d97706" stroke-width="1.2"/><text fill="#9a3412" font-size="11" font-weight="600" text-anchor="middle" x="187" y="214">T</text>
<rect fill="#ffedd5" height="24" rx="3" width="26" x="200" y="198" stroke="#d97706" stroke-width="1.2"/><text fill="#9a3412" font-size="11" font-weight="600" text-anchor="middle" x="213" y="214">T</text>
<rect fill="#ffedd5" height="24" rx="3" width="26" x="226" y="198" stroke="#d97706" stroke-width="1.2"/><text fill="#9a3412" font-size="11" font-weight="600" text-anchor="middle" x="239" y="214">T</text>
<rect fill="#ffedd5" height="24" rx="3" width="26" x="252" y="198" stroke="#d97706" stroke-width="1.2"/><text fill="#9a3412" font-size="11" font-weight="600" text-anchor="middle" x="265" y="214">T</text>
<rect fill="#ffedd5" height="24" rx="3" width="26" x="278" y="198" stroke="#d97706" stroke-width="1.2"/><text fill="#9a3412" font-size="11" font-weight="600" text-anchor="middle" x="291" y="214">T</text>
<rect fill="#ffedd5" height="24" rx="3" width="26" x="304" y="198" stroke="#d97706" stroke-width="1.2"/><text fill="#9a3412" font-size="11" font-weight="600" text-anchor="middle" x="317" y="214">T</text>
<rect fill="#ffedd5" height="24" rx="3" width="26" x="330" y="198" stroke="#d97706" stroke-width="1.2"/><text fill="#9a3412" font-size="11" font-weight="600" text-anchor="middle" x="343" y="214">T</text>
<rect fill="#f3e8ff" height="24" rx="3" width="26" x="356" y="198" stroke="#cbd5e1" stroke-width="0.7"/><text fill="#6b21a8" font-size="11" font-weight="600" text-anchor="middle" x="369" y="214">C</text>
<rect fill="#dbeafe" height="24" rx="3" width="26" x="382" y="198" stroke="#cbd5e1" stroke-width="0.7"/><text fill="#1e40af" font-size="11" font-weight="600" text-anchor="middle" x="395" y="214">G</text>
<rect fill="#dcfce7" height="24" rx="3" width="26" x="408" y="198" stroke="#cbd5e1" stroke-width="0.7"/><text fill="#166534" font-size="11" font-weight="600" text-anchor="middle" x="421" y="214">A</text>
<text fill="#64748b" font-size="10" x="14" y="254">Corrected</text>
<rect fill="#ffedd5" height="24" rx="3" width="26" x="70" y="238" stroke="#cbd5e1" stroke-width="0.7"/><text fill="#9a3412" font-size="11" font-weight="600" text-anchor="middle" x="83" y="254">T</text>
<rect fill="#ffedd5" height="24" rx="3" width="26" x="96" y="238" stroke="#cbd5e1" stroke-width="0.7"/><text fill="#9a3412" font-size="11" font-weight="600" text-anchor="middle" x="109" y="254">T</text>
<rect fill="#ffedd5" height="24" rx="3" width="26" x="122" y="238" stroke="#cbd5e1" stroke-width="0.7"/><text fill="#9a3412" font-size="11" font-weight="600" text-anchor="middle" x="135" y="254">T</text>
<rect fill="#ffedd5" height="24" rx="3" width="26" x="148" y="238" stroke="#cbd5e1" stroke-width="0.7"/><text fill="#9a3412" font-size="11" font-weight="600" text-anchor="middle" x="161" y="254">T</text>
<rect fill="#ffedd5" height="24" rx="3" width="26" x="174" y="238" stroke="#cbd5e1" stroke-width="0.7"/><text fill="#9a3412" font-size="11" font-weight="600" text-anchor="middle" x="187" y="254">T</text>
<rect fill="#ffedd5" height="24" rx="3" width="26" x="200" y="238" stroke="#cbd5e1" stroke-width="0.7"/><text fill="#9a3412" font-size="11" font-weight="600" text-anchor="middle" x="213" y="254">T</text>
<rect fill="#ffedd5" height="24" rx="3" width="26" x="226" y="238" stroke="#cbd5e1" stroke-width="0.7"/><text fill="#9a3412" font-size="11" font-weight="600" text-anchor="middle" x="239" y="254">T</text>
<rect fill="#ffedd5" height="24" rx="3" width="26" x="252" y="238" stroke="#cbd5e1" stroke-width="0.7"/><text fill="#9a3412" font-size="11" font-weight="600" text-anchor="middle" x="265" y="254">T</text>
<rect fill="#ccfbf1" height="24" rx="3" width="26" x="278" y="238" stroke="#0d9488" stroke-width="1.2"/><text fill="#9a3412" font-size="11" font-weight="600" text-anchor="middle" x="291" y="254">T</text>
<rect fill="#ccfbf1" height="24" rx="3" width="26" x="304" y="238" stroke="#0d9488" stroke-width="1.2"/><text fill="#9a3412" font-size="11" font-weight="600" text-anchor="middle" x="317" y="254">T</text>
<rect fill="#ccfbf1" height="24" rx="3" width="26" x="330" y="238" stroke="#0d9488" stroke-width="1.2"/><text fill="#9a3412" font-size="11" font-weight="600" text-anchor="middle" x="343" y="254">T</text>
<rect fill="#ccfbf1" height="24" rx="3" width="26" x="356" y="238" stroke="#0d9488" stroke-width="1.2"/><text fill="#6b21a8" font-size="11" font-weight="600" text-anchor="middle" x="369" y="254">C</text>
<rect fill="#dbeafe" height="24" rx="3" width="26" x="382" y="238" stroke="#2563eb" stroke-width="1.2"/><text fill="#166534" font-size="11" font-weight="600" text-anchor="middle" x="395" y="254">A</text>
<rect fill="#dbeafe" height="24" rx="3" width="26" x="408" y="238" stroke="#2563eb" stroke-width="1.2"/><text fill="#166534" font-size="11" font-weight="600" text-anchor="middle" x="421" y="254">A</text>
<rect fill="#dbeafe" height="24" rx="3" width="26" x="434" y="238" stroke="#2563eb" stroke-width="1.2"/><text fill="#166534" font-size="11" font-weight="600" text-anchor="middle" x="447" y="254">A</text>
<rect fill="#dbeafe" height="24" rx="3" width="26" x="460" y="238" stroke="#2563eb" stroke-width="1.2"/><text fill="#166534" font-size="11" font-weight="600" text-anchor="middle" x="473" y="254">A</text>
<rect fill="#dbeafe" height="24" rx="3" width="26" x="486" y="238" stroke="#2563eb" stroke-width="1.2"/><text fill="#166534" font-size="11" font-weight="600" text-anchor="middle" x="499" y="254">A</text>
<rect fill="#dbeafe" height="24" rx="3" width="26" x="512" y="238" stroke="#2563eb" stroke-width="1.2"/><text fill="#166534" font-size="11" font-weight="600" text-anchor="middle" x="525" y="254">A</text>
<rect fill="#dbeafe" height="24" rx="3" width="26" x="538" y="238" stroke="#2563eb" stroke-width="1.2"/><text fill="#166534" font-size="11" font-weight="600" text-anchor="middle" x="551" y="254">A</text>
<rect fill="#dbeafe" height="24" rx="3" width="26" x="564" y="238" stroke="#2563eb" stroke-width="1.2"/><text fill="#166534" font-size="11" font-weight="600" text-anchor="middle" x="577" y="254">A</text>
<rect fill="#dbeafe" height="24" rx="3" width="26" x="590" y="238" stroke="#2563eb" stroke-width="1.2"/><text fill="#166534" font-size="11" font-weight="600" text-anchor="middle" x="603" y="254">A</text>
<line stroke="#059669" stroke-width="2" x1="382" x2="382" y1="230" y2="266"/>
<text fill="#059669" font-size="9" font-weight="600" x="387" y="226">corrected 3′ end</text>
<path d="M278,263 L278,268 L382,268 L382,263" fill="none" stroke="#0d9488" stroke-width="1" opacity="0.6"/>
<text fill="#0d9488" font-size="8.5" text-anchor="middle" x="330.0" y="280">+4 bp rescued (3 T’s + CPA base)</text>
<path d="M382,263 L382,268 L616,268 L616,263" fill="none" stroke="#2563eb" stroke-width="1" opacity="0.6"/>
<text fill="#2563eb" font-size="8.5" text-anchor="middle" x="499.0" y="280">poly(A) tail</text>
</g>
</svg>