<svg xmlns="http://www.w3.org/2000/svg" viewBox="0 0 840 256"
     role="img" aria-label="RECTIFY">
  <rect width="840" height="256" fill="#0b1220" />
  <svg x="0" y="0" width="256" height="256" viewBox="0 0 256 256">
  
  <path d="M 24,128 C 36,108 48,148 60,128 C 72,108 84,148 96,128 C 108,108 120,148 132,128" fill="none"
        stroke="#94a3b8" stroke-width="2.6"
        stroke-linejoin="round" stroke-linecap="round" />
  <line x1="132" y1="128" x2="224" y2="128"
        stroke="#94a3b8" stroke-width="2.6" stroke-linecap="round" />
  <rect x="142" y="106" width="12" height="14" rx="2.5" fill="#134e3a" opacity="0.9" /><rect x="156" y="106" width="12" height="14" rx="2.5" fill="#134e3a" opacity="0.9" /><rect x="170" y="106" width="12" height="14" rx="2.5" fill="#134e3a" opacity="0.9" /><rect x="184" y="106" width="12" height="14" rx="2.5" fill="#134e3a" opacity="0.9" /><rect x="198" y="106" width="12" height="14" rx="2.5" fill="#134e3a" opacity="0.9" /><rect x="212" y="106" width="12" height="14" rx="2.5" fill="#134e3a" opacity="0.9" />
  <text x="148" y="116" text-anchor="middle" font-family="Inter, 'Helvetica Neue', Helvetica, Arial, sans-serif" font-size="13" font-weight="600" fill="#a7f3d0">A</text><text x="162" y="116" text-anchor="middle" font-family="Inter, 'Helvetica Neue', Helvetica, Arial, sans-serif" font-size="13" font-weight="600" fill="#a7f3d0">A</text><text x="176" y="116" text-anchor="middle" font-family="Inter, 'Helvetica Neue', Helvetica, Arial, sans-serif" font-size="13" font-weight="600" fill="#a7f3d0">A</text><text x="190" y="116" text-anchor="middle" font-family="Inter, 'Helvetica Neue', Helvetica, Arial, sans-serif" font-size="13" font-weight="600" fill="#a7f3d0">A</text><text x="204" y="116" text-anchor="middle" font-family="Inter, 'Helvetica Neue', Helvetica, Arial, sans-serif" font-size="13" font-weight="600" fill="#a7f3d0">A</text><text x="218" y="116" text-anchor="middle" font-family="Inter, 'Helvetica Neue', Helvetica, Arial, sans-serif" font-size="13" font-weight="600" fill="#a7f3d0">A</text>
  
  <line x1="132" y1="92" x2="132" y2="142" stroke="#2dd4bf" stroke-width="3" stroke-linecap="round" />
  <circle cx="132" cy="88" r="5.5" fill="#2dd4bf" />
  <path d="M 127,148 L 132,160 L 137,148 Z" fill="#5eead4" />

</svg>
  <g font-family="Inter, 'Helvetica Neue', Helvetica, Arial, sans-serif">
    <text x="284" y="158" font-size="92" font-weight="700" letter-spacing="4"
          fill="#f1f5f9">RECTIFY</text>
    <text x="288" y="192" font-size="18" font-weight="500" letter-spacing="2.4"
          fill="#94a3b8">NANOPORE  RNA  ALIGNMENT  CORRECTION</text>
  </g>
</svg>
